<?xml version="1.0" encoding="UTF-8"?>
<svg version="1.1" xmlns="http://www.w3.org/2000/svg" width="440" height="440">
<path d="M0 0 C4.09687356 3.34250098 7.97807147 6.8940062 11.84033203 10.50146484 C13.48474062 11.96140452 15.13060871 13.41970172 16.77783203 14.87646484 C25.93112839 23.14025591 34.21117458 31.81631412 41.84033203 41.50146484 C42.71141365 42.57154642 43.58386268 43.64051601 44.45751953 44.70849609 C51.11012305 52.90965281 56.97500017 61.47915172 62.55566406 70.44042969 C63.7523299 72.36028013 64.96516518 74.26897997 66.18017578 76.17724609 C94.14718837 120.73806009 106.56391597 174.1073774 106.27783203 226.25146484 C106.27326996 228.02413223 106.27326996 228.02413223 106.26861572 229.83261108 C106.20189382 247.38625275 105.59647569 264.29990606 101.84033203 281.50146484 C101.61539063 282.56945312 101.39044922 283.63744141 101.15869141 284.73779297 C93.43797807 320.78905772 80.78570125 359.1495668 57.84033203 388.50146484 C56.97214844 389.65775391 56.97214844 389.65775391 56.08642578 390.83740234 C51.28128838 396.83546249 44.58080954 402.13121082 36.84033203 403.50146484 C27.15320519 404.56435793 19.90896101 403.05381567 11.84033203 397.50146484 C5.52144416 392.04679432 2.26916969 386.28836518 1.52783203 378.01318359 C1.12629702 365.52795421 5.20212891 357.16852249 11.52783203 346.56396484 C23.4157832 326.12270897 32.53314291 304.89314402 38.15283203 281.87646484 C38.49834106 280.4676001 38.49834106 280.4676001 38.85083008 279.03027344 C42.73464684 262.21512842 44.39813828 245.67254429 44.27783203 228.43896484 C44.27479065 227.50669067 44.27174927 226.5744165 44.26861572 225.6138916 C44.19344651 209.95130127 43.17439538 194.85236533 39.84033203 179.50146484 C39.62602539 178.50856445 39.41171875 177.51566406 39.19091797 176.49267578 C34.7135717 156.47822107 27.55783882 137.54304186 17.84033203 119.50146484 C17.4885791 118.83808105 17.13682617 118.17469727 16.77441406 117.49121094 C8.77111651 102.45939949 -0.92659613 89.26650894 -12.15966797 76.50146484 C-12.96791016 75.58107422 -13.77615234 74.66068359 -14.60888672 73.71240234 C-22.24187233 65.13339305 -30.14024812 57.62777117 -39.15966797 50.50146484 C-40.04138672 49.79119141 -40.92310547 49.08091797 -41.83154297 48.34912109 C-52.89615899 39.70684333 -65.14025936 32.22257298 -77.84716797 26.25146484 C-85.35786316 22.61828556 -92.10662516 17.55379145 -95.44482422 9.69287109 C-98.61951753 -0.03938544 -98.60086267 -8.15857947 -94.59716797 -17.62353516 C-90.69453192 -24.80263804 -83.85127497 -30.03141593 -76.15966797 -32.49853516 C-48.84604532 -38.75790701 -19.91508124 -15.9136565 0 0 Z " fill="#d87943" transform="translate(285.15966796875,34.49853515625)"/>
<path d="M0 0 C3.25886498 2.4234583 6.41373844 4.96998721 9.5390625 7.5625 C10.11785156 8.03977539 10.69664062 8.51705078 11.29296875 9.00878906 C49.85571614 40.9708934 74.36645266 84.68174953 80.5390625 134.5625 C80.70230349 137.42568089 80.74885159 140.28495308 80.77734375 143.15234375 C80.79203453 144.37210907 80.79203453 144.37210907 80.80702209 145.61651611 C80.9789284 163.60474103 80.82572475 180.98225759 76.5390625 198.5625 C76.22557861 199.89087891 76.22557861 199.89087891 75.90576172 201.24609375 C69.98724168 225.68270981 59.36324377 248.96508512 43.5390625 268.5625 C42.95511719 269.32304687 42.37117188 270.08359375 41.76953125 270.8671875 C35.67283647 278.43451357 27.25015891 283.6560662 17.53125 284.96875 C8.00625764 285.25521594 0.42723214 283.1207399 -6.66015625 276.51171875 C-12.6650209 269.42421603 -14.81672131 262.21296909 -14.3984375 253 C-13.44115328 244.31315487 -10.04724882 238.15689144 -5.1640625 231.06640625 C15.10067163 201.27352877 24.17665214 168.8658673 17.515625 133.1015625 C10.04839453 96.75485681 -13.08848693 66.43735184 -43.64550781 46.19750977 C-48.29809942 43.19415772 -53.09878168 40.52077564 -57.9609375 37.875 C-67.30809663 32.74777727 -73.75923407 27.17531294 -77.04296875 16.70703125 C-78.73657251 8.01741945 -78.09072753 -0.8081277 -73.4609375 -8.4375 C-53.51738827 -34.41363522 -20.60769495 -14.81364738 0 0 Z " fill="#d87943" transform="translate(200.4609375,110.4375)"/>
<path d="M0 0 C2.86787801 2.11102534 5.61557459 4.2959258 8.33203125 6.59765625 C9.18667969 7.30277344 10.04132813 8.00789063 10.921875 8.734375 C33.08581412 27.75643061 46.34190085 54.5225482 49.16650391 83.42236328 C51.20612251 110.22620075 44.67660389 137.40631251 27.76953125 158.72265625 C20.17098516 167.40106504 12.01258762 174.56166688 0.10546875 175.8359375 C-9.15815308 176.12259681 -16.70139595 173.07091449 -23.9140625 167.30078125 C-29.80770571 161.57777805 -32.70666164 154.48200914 -32.98046875 146.34765625 C-32.78453277 137.85325509 -30.73334027 131.44809911 -25.41796875 124.84375 C-17.9062022 115.20253177 -11.78191102 104.30764868 -12.3828125 91.71484375 C-14.75022789 74.13759526 -23.7507919 60.39195439 -37.66796875 49.59765625 C-42.32416978 46.3774134 -47.15686069 43.4781169 -52.046875 40.62890625 C-62.14936051 34.65246431 -68.62867523 29.27673921 -71.66796875 17.59765625 C-72.88287348 8.91976533 -71.00656665 1.64540373 -66.1953125 -5.62890625 C-48.10765683 -28.46296802 -19.05457678 -12.93708341 0 0 Z " fill="#d87943" transform="translate(117.66796875,184.40234375)"/>
<path d="M0 0 C0.33 0 0.66 0 1 0 C3.64301803 16.61752704 4.52288386 32.8748709 4.4375 49.6875 C4.4361203 50.86512909 4.4347406 52.04275818 4.43331909 53.256073 C4.39531762 70.81260339 3.63045669 87.77330783 0 105 C-0.33439712 106.66645356 -0.66801533 108.33306417 -1 110 C-1.66 109.67 -2.32 109.34 -3 109 C-2.80664062 107.79730469 -2.61328125 106.59460938 -2.4140625 105.35546875 C2.42467602 74.13860391 4.6310575 41.31458548 -0.59765625 9.98046875 C-1.00843838 6.93749048 -1.1387803 4.06659697 -1 1 C-0.67 0.67 -0.34 0.34 0 0 Z " fill="#d87943" transform="translate(387,211)"/>
<path d="M0 0 C6.47814514 4.76851822 12.46224279 10.10446926 18.33203125 15.59765625 C16.84703125 16.09265625 16.84703125 16.09265625 15.33203125 16.59765625 C12.54089486 14.73689865 10.54190995 12.87643681 8.5234375 10.1953125 C6.13998864 7.37001215 3.80716271 5.66010913 0.70703125 3.66015625 C-0.35773438 2.97308594 -1.4225 2.28601563 -2.51953125 1.578125 C-3.55851562 0.92457031 -4.5975 0.27101562 -5.66796875 -0.40234375 C-6.52132812 -0.94246094 -7.3746875 -1.48257813 -8.25390625 -2.0390625 C-21.49400868 -10.20164992 -33.73869265 -16.33675398 -49.66796875 -14.40234375 C-53.05205698 -13.18185291 -55.77632297 -11.52288399 -58.66796875 -9.40234375 C-59.54775391 -8.80873047 -59.54775391 -8.80873047 -60.4453125 -8.203125 C-64.58132719 -5.15926089 -66.01262447 -2.09248588 -67.66796875 2.59765625 C-68.32796875 2.59765625 -68.98796875 2.59765625 -69.66796875 2.59765625 C-68.32127431 -3.38765236 -65.17094278 -7.39420203 -60.66796875 -11.40234375 C-40.01997171 -24.46011135 -18.12478145 -12.30579992 0 0 Z " fill="#d87943" transform="translate(117.66796875,184.40234375)"/>
<path d="M0 0 C0.99 0.495 0.99 0.495 2 1 C-6.83836383 18.62735133 -17.61860416 38.67082434 -36.921875 46.12890625 C-46.12684898 48.73386716 -54.11841433 47.40350671 -62.38671875 42.79296875 C-66.09700805 40.24734426 -68.43980834 37.69805462 -71 34 C-71 33.34 -71 32.68 -71 32 C-70.34 32 -69.68 32 -69 32 C-69 32.66 -69 33.32 -69 34 C-68.34 34 -67.68 34 -67 34 C-66.505 34.721875 -66.01 35.44375 -65.5 36.1875 C-61.19624913 41.02921972 -56.17998476 43.66466985 -49.703125 44.34765625 C-44.06804581 44.39310044 -38.54050247 44.03079116 -33 43 C-33 42.34 -33 41.68 -33 41 C-26.375 37.125 -26.375 37.125 -23 36 C-23 35.01 -23 34.02 -23 33 C-21.34997172 31.64613064 -19.6825613 30.31321858 -18 29 C-17.505 27.515 -17.505 27.515 -17 26 C-15.67368037 24.65968966 -14.33940765 23.32723122 -13 22 C-8.06155778 15.04333595 -3.97838275 7.53415341 0 0 Z " fill="#d87943" transform="translate(261,348)"/>
<path d="M0 0 C16.14447077 19.18081619 31.84731396 53.48643521 31 79 C30.34 79 29.68 79 29 79 C27.7200145 76.44002901 27.56167523 74.15553236 27.1875 71.3125 C23.83992682 48.59222127 23.83992682 48.59222127 13 29 C12.74476563 28.00484375 12.48953125 27.0096875 12.2265625 25.984375 C10.88403702 20.91377974 8.08243012 16.69595758 5.375 12.25 C4.3560558 10.57128943 3.34275138 8.88913872 2.3359375 7.203125 C1.88782715 6.46739258 1.4397168 5.73166016 0.97802734 4.97363281 C0 3 0 3 0 0 Z " fill="#d87943" transform="translate(248,159)"/>
<path d="M0 0 C2.37009556 3.55514334 3.13508375 7.02421877 4.0625 11.125 C4.2387793 11.89980713 4.41505859 12.67461426 4.59667969 13.47290039 C5.74831046 18.64489812 6.80372843 23.69248974 7 29 C7.0515625 30.30066406 7.103125 31.60132813 7.15625 32.94140625 C7.49836393 46.07973127 5.7588036 58.39983662 2 71 C1.67 71 1.34 71 1 71 C1.51166983 65.62746677 2.09187323 60.2785782 2.78637695 54.92626953 C5.04828764 37.09897349 4.26309535 20.02233598 -0.65625 2.6875 C-0.7696875 2.130625 -0.883125 1.57375 -1 1 C-0.67 0.67 -0.34 0.34 0 0 Z " fill="#d87943" transform="translate(160,241)"/>
<path d="M0 0 C2.26532882 2.26532882 2.97471338 4.03470767 4.171875 6.99609375 C4.58630859 8.02105957 5.00074219 9.04602539 5.42773438 10.10205078 C5.86408203 11.20274902 6.30042969 12.30344727 6.75 13.4375 C7.19666016 14.55882324 7.64332031 15.68014648 8.10351562 16.83544922 C11.87265767 26.42603388 15.11377105 36.11217771 18 46 C18.3815625 47.24523437 18.763125 48.49046875 19.15625 49.7734375 C20 53 20 53 20 57 C18.02734375 56.2265625 18.02734375 56.2265625 16 55 C15.75729532 52.98901835 15.53534009 50.97406795 15.3984375 48.953125 C13.5396782 35.17643841 7.3156929 19.12602063 0.890625 6.88671875 C-0.23581803 4.50043812 -0.14475984 2.60567718 0 0 Z " fill="#d87943" transform="translate(363,134)"/>
<path d="M0 0 C1.0326802 2.78823655 1.04509293 3.8677274 0.0625 6.75 C-0.4634375 7.86375 -0.4634375 7.86375 -1 9 C-1.66 9 -2.32 9 -3 9 C-3.1546875 9.8353125 -3.1546875 9.8353125 -3.3125 10.6875 C-4.14482261 13.48713061 -5.45224697 15.51253977 -7 18 C-7.86314686 19.49485056 -8.71659002 20.99532827 -9.5625 22.5 C-9.97628906 23.2321875 -10.39007813 23.964375 -10.81640625 24.71875 C-13.50038076 29.89182299 -14.31533361 34.04941934 -14.25 39.875 C-14.25773437 40.55691406 -14.26546875 41.23882812 -14.2734375 41.94140625 C-14.25553742 46.64017673 -13.46832452 50.5367596 -12 55 C-12.99 54.67 -13.98 54.34 -15 54 C-16.96880222 49.58671181 -17.32482818 45.54642613 -17.375 40.75 C-17.40335937 39.52796875 -17.43171875 38.3059375 -17.4609375 37.046875 C-16.88748723 27.91727313 -11.32676848 19.67806822 -6.8125 12 C-5.73543536 10.14597374 -4.65860056 8.29181393 -3.58203125 6.4375 C-3.10999268 5.63183594 -2.6379541 4.82617188 -2.15161133 3.99609375 C-1.39560136 2.68569784 -0.67656315 1.35312631 0 0 Z " fill="#d87943" transform="translate(304,368)"/>
<path d="M0 0 C15.6101039 0.2601684 29.4740551 8.95711514 42.1875 17.1875 C42.86031006 17.61571045 43.53312012 18.0439209 44.22631836 18.48510742 C45.87347052 19.57671755 47.44496858 20.78073785 49 22 C49 22.99 49 23.98 49 25 C45.85808576 23.46395304 42.91403262 21.94268841 40 20 C40 19.34 40 18.68 40 18 C39.48953125 17.74476562 38.9790625 17.48953125 38.453125 17.2265625 C32.96875 14.484375 27.484375 11.7421875 22 9 C22 8.34 22 7.68 22 7 C21.443125 6.96261719 20.88625 6.92523437 20.3125 6.88671875 C15.4497856 6.46780248 11.43372349 5.55328979 6.9296875 3.69921875 C3.98277224 2.63140938 1.10972133 2.32392931 -2 2 C-1.34 1.34 -0.68 0.68 0 0 Z " fill="#d87943" transform="translate(222,2)"/>
<path d="M0 0 C4.34847653 0.54062141 6.84660432 2.0542218 10.3125 4.6875 C11.26382813 5.40550781 12.21515625 6.12351563 13.1953125 6.86328125 C14.12085938 7.56839844 15.04640625 8.27351562 16 9 C16.82242188 9.59167969 17.64484375 10.18335938 18.4921875 10.79296875 C19.57886719 11.57607422 19.57886719 11.57607422 20.6875 12.375 C21.33074219 12.83648437 21.97398437 13.29796875 22.63671875 13.7734375 C23.08660156 14.17820313 23.53648437 14.58296875 24 15 C24 15.66 24 16.32 24 17 C26.97 17.66 29.94 18.32 33 19 C32.505 20.485 32.505 20.485 32 22 C32.66 22 33.32 22 34 22 C34.28875 22.7425 34.5775 23.485 34.875 24.25 C35.82368263 26.56900199 36.86559779 28.76932676 38 31 C34.74264489 28.26086048 31.53917649 25.51512092 28.4609375 22.57421875 C20.73185436 15.21774981 12.43535974 9.12171095 3.59716797 3.15405273 C2 2 2 2 0 0 Z " fill="#d87943" transform="translate(151,152)"/>
<path d="M0 0 C0.66 0 1.32 0 2 0 C1.0731597 6.44426609 0.00309476 12.58095669 -2.21484375 18.7109375 C-3.11702209 21.34116889 -3.80690104 23.99493757 -4.5 26.6875 C-5.5904758 30.7711047 -6.96854093 34.27565838 -9 38 C-10.03648385 40.31907346 -11.0162749 42.65779738 -12 45 C-12.66 45 -13.32 45 -14 45 C-12.36922928 40.09239937 -10.72669093 35.18934077 -9.0625 30.29296875 C-8.37493671 28.25783388 -7.68743767 26.22267731 -7 24.1875 C-6.48566406 22.68219727 -6.48566406 22.68219727 -5.9609375 21.14648438 C-3.61355481 14.17153236 -1.68174563 7.16414081 0 0 Z " fill="#d87943" transform="translate(325,310)"/>
<path d="M0 0 C2.92163623 0.6232824 5.25850233 1.5709089 7.875 3 C11.29150295 4.73976903 14.13658279 5.67804857 18 6 C19.216875 6.103125 20.43375 6.20625 21.6875 6.3125 C26.36936798 6.29442329 30.31225294 4.56595328 34.58203125 2.77734375 C37 2 37 2 40 3 C38.41925436 3.81752303 36.83528777 4.62881997 35.25 5.4375 C34.36828125 5.88996094 33.4865625 6.34242188 32.578125 6.80859375 C26.46992893 9.63132072 19.82989385 10.08382626 13.3359375 8.24609375 C8.4786172 6.37507158 4.13905591 4.15875319 0 1 C0 0.67 0 0.34 0 0 Z " fill="#d87943" transform="translate(94,351)"/>
<path d="M0 0 C1.72265625 0.12890625 1.72265625 0.12890625 4 1 C5.65067085 2.95777241 7.04157936 4.81159428 8.4375 6.9375 C8.83001953 7.52072021 9.22253906 8.10394043 9.62695312 8.70483398 C15.38544469 17.41514736 19.16021749 24.69651116 19.0625 35.25 C19.05347656 36.51328125 19.04445313 37.7765625 19.03515625 39.078125 C19.02355469 40.04234375 19.01195313 41.0065625 19 42 C18.67 42 18.34 42 18 42 C17.82984375 40.88882813 17.6596875 39.77765625 17.484375 38.6328125 C15.16595277 24.10588616 11.15107881 14.60667718 2 3 C1.34 2.01 0.68 1.02 0 0 Z " fill="#d87943" transform="translate(88,240)"/>
<path d="M0 0 C0.33 0 0.66 0 1 0 C0.28050567 13.19072941 -4.59469727 26.06233142 -10 38 C-10.94314127 34.58389775 -11.08065117 31.54865136 -11 28 C-10.01 27.67 -9.02 27.34 -8 27 C-7.05506652 24.99669141 -7.05506652 24.99669141 -6.46484375 22.51953125 C-6.08682617 21.1437793 -6.08682617 21.1437793 -5.70117188 19.74023438 C-5.44916016 18.77408203 -5.19714844 17.80792969 -4.9375 16.8125 C-4.42683025 14.92289328 -3.91513736 13.03356272 -3.40234375 11.14453125 C-3.16370605 10.25459473 -2.92506836 9.3646582 -2.67919922 8.44775391 C-1.88759876 5.59491918 -0.98110706 2.79310382 0 0 Z " fill="#d87943" transform="translate(276,304)"/>
<path d="M0 0 C2.97 0.495 2.97 0.495 6 1 C5.67 1.66 5.34 2.32 5 3 C7.52788007 5.79872437 9.20411134 7.45773019 13 8 C13 8.66 13 9.32 13 10 C18.94 10.66 24.88 11.32 31 12 C31 12.66 31 13.32 31 14 C21.25430167 14.84881889 14.14438438 13.60002513 6 8 C3.58922517 5.77466939 1.90687407 3.70140493 0 1 C0 0.67 0 0.34 0 0 Z " fill="#d87943" transform="translate(291,424)"/>
<path d="M0 0 C0.66 0 1.32 0 2 0 C0.72838493 12.06736749 -3.34052067 23.49209297 -7 35 C-7.66 35 -8.32 35 -9 35 C-9 33.02 -9 31.04 -9 29 C-8.34 29 -7.68 29 -7 29 C-6.96261719 28.34773438 -6.92523438 27.69546875 -6.88671875 27.0234375 C-6.47336879 21.52831446 -5.514129 17.93156073 -3 13 C-1.85820598 8.69631483 -0.91162199 4.3576824 0 0 Z " fill="#d87943" transform="translate(383,322)"/>
<path d="M0 0 C-1 2 -1 2 -3.2578125 2.89453125 C-4.20398438 3.19746094 -5.15015625 3.50039062 -6.125 3.8125 C-13.33714055 6.35686087 -18.59618515 9.11925888 -22.15625 16.0859375 C-23.59220478 19.34342751 -24.82122331 22.64048645 -26 26 C-27.47780029 21.68326757 -26.26954575 19.34144154 -24.3515625 15.375 C-19.39471374 6.66469929 -10.75859639 -1.41560479 0 0 Z " fill="#d87943" transform="translate(215,2)"/>
<path d="M0 0 C1.90678151 2.86017227 2.80314603 5.14172149 3.875 8.375 C5.36360318 12.61136318 6.9613211 15.63574836 10 19 C10 19.66 10 20.32 10 21 C11.32 21.33 12.64 21.66 14 22 C14 22.66 14 23.32 14 24 C14.78375 24.309375 15.5675 24.61875 16.375 24.9375 C19 26 19 26 21 27 C21 27.66 21 28.32 21 29 C13.30387958 26.59496237 6.70008201 20.95952564 2.875 13.93359375 C0.49439703 9.04839807 -0.46109146 5.41782471 0 0 Z " fill="#d87943" transform="translate(188,32)"/>
<path d="M0 0 C4.44067619 0.5163577 7.24568155 1.6288515 11 4 C12.051875 4.2475 12.051875 4.2475 13.125 4.5 C15 5 15 5 16.30078125 6.3125 C19.09902895 9.09144944 22.4548679 11.09312741 25.72265625 13.28125 C28 15 28 15 30 18 C25.71949396 16.49300536 22.1251281 14.25302627 18.375 11.75 C12.41383911 7.83685016 6.32920308 4.29376895 0 1 C0 0.67 0 0.34 0 0 Z " fill="#d87943" transform="translate(210,61)"/>
<path d="M0 0 C3.83462187 3.54785884 6.54364465 7.15635045 9.0625 11.75 C9.40539062 12.36327148 9.74828125 12.97654297 10.1015625 13.60839844 C17 26.10034087 17 26.10034087 17 30 C16.34 30 15.68 30 15 30 C14.50371094 28.88882813 14.00742188 27.77765625 13.49609375 26.6328125 C9.97615091 18.88371062 6.52016436 11.63521059 1.25 4.8828125 C0 3 0 3 0 0 Z " fill="#d87943" transform="translate(143,210)"/>
<path d="M0 0 C9.02326945 7.65016323 17.72299656 15.5430617 26 24 C25.01 24.33 24.02 24.66 23 25 C22.67 24.01 22.34 23.02 22 22 C21.34 22 20.68 22 20 22 C18.625 20.53125 18.625 20.53125 17 18.5 C13.44790743 14.29731364 9.48948742 11.01029507 5.13671875 7.6640625 C3 6 3 6 1 4 C0.01 4.33 -0.98 4.66 -2 5 C-1.34 3.35 -0.68 1.7 0 0 Z " fill="#d87943" transform="translate(290,39)"/>
<path d="M0 0 C0.33 0 0.66 0 1 0 C3.69544601 13.23656524 3.19706032 26.56048643 3 40 C2.67 40 2.34 40 2 40 C1.92652344 38.18628906 1.92652344 38.18628906 1.8515625 36.3359375 C1.45716019 27.44867802 0.86800194 18.76371963 -0.59765625 9.98046875 C-1.00843838 6.93749048 -1.1387803 4.06659697 -1 1 C-0.67 0.67 -0.34 0.34 0 0 Z " fill="#d87943" transform="translate(387,211)"/>
<path d="M0 0 C1.66666667 0.66666667 3.33333333 1.33333333 5 2 C5.86625 2.268125 6.7325 2.53625 7.625 2.8125 C10.64854267 4.32427133 11.28713182 6.14521971 13 9 C13.825 9.33 14.65 9.66 15.5 10 C18.77103183 11.30841273 19.30875319 12.98516873 21 16 C23.06954847 17.78344178 23.06954847 17.78344178 25 19 C24.67 19.99 24.34 20.98 24 22 C23.62230469 21.59910156 23.24460937 21.19820312 22.85546875 20.78515625 C17.61676077 15.37468736 11.86930102 10.70601613 6 6 C3.97109315 4.35977262 1.97367007 2.70695789 0 1 C0 0.67 0 0.34 0 0 Z " fill="#d87943" transform="translate(240,79)"/>
<path d="M0 0 C0.66 0.33 1.32 0.66 2 1 C-3.14769396 9.14580144 -8.41919625 17.21071418 -17 22 C-17.66 22 -18.32 22 -19 22 C-19 21.34 -19 20.68 -19 20 C-18.01 20 -17.02 20 -16 20 C-16 19.01 -16 18.02 -16 17 C-14.02 16.01 -12.04 15.02 -10 14 C-10 13.34 -10 12.68 -10 12 C-8.33333333 10.33333333 -6.66666667 8.66666667 -5 7 C-3.24735796 4.71682848 -1.62972315 2.37473944 0 0 Z " fill="#d87943" transform="translate(347,413)"/>
<path d="M0 0 C0.66 0 1.32 0 2 0 C2 0.66 2 1.32 2 2 C2.66 2.33 3.32 2.66 4 3 C5.45843194 5.95576085 6.49785823 9.09244202 7.625 12.1875 C7.94984375 13.03892578 8.2746875 13.89035156 8.609375 14.76757812 C10.28705934 19.32481731 11.43616291 23.06489741 11 28 C9.23760465 25.35640698 8.20538252 23.19281868 7.08984375 20.25390625 C6.73986328 19.33416016 6.38988281 18.41441406 6.02929688 17.46679688 C5.66900391 16.50837891 5.30871094 15.54996094 4.9375 14.5625 C4.39125977 13.13067383 4.39125977 13.13067383 3.83398438 11.66992188 C0.89853386 3.91620877 0.89853386 3.91620877 0 0 Z " fill="#d87943" transform="translate(310,166)"/>
<path d="M0 0 C0.66 0 1.32 0 2 0 C1.5335341 6.05413183 -1.20526903 10.65573903 -4.0625 15.875 C-4.53494141 16.75414062 -5.00738281 17.63328125 -5.49414062 18.5390625 C-6.65518074 20.69695524 -7.82392268 22.85027708 -9 25 C-9.66 23.68 -10.32 22.36 -11 21 C-10.4225 20.525625 -9.845 20.05125 -9.25 19.5625 C-5.22212987 14.97520346 -2.78260471 9.06518649 -2 3 C-1.34 3 -0.68 3 0 3 C0 2.01 0 1.02 0 0 Z " fill="#d87943" transform="translate(159,312)"/>
<path d="M0 0 C0.66 0.33 1.32 0.66 2 1 C2 1.66 2 2.32 2 3 C2.66 3.33 3.32 3.66 4 4 C3.38245741 5.31602523 2.75571258 6.62773556 2.125 7.9375 C1.77695312 8.66839844 1.42890625 9.39929688 1.0703125 10.15234375 C0 12 0 12 -2 13 C-2.65555119 15.52733235 -2.65555119 15.52733235 -3 18 C-3.33 18 -3.66 18 -4 18 C-3.91239411 15.93673023 -3.80420727 13.8743284 -3.6875 11.8125 C-3.62949219 10.66394531 -3.57148438 9.51539063 -3.51171875 8.33203125 C-2.97745494 4.85319896 -2.0052674 2.85468362 0 0 Z " fill="#d87943" transform="translate(331,286)"/>
<path d="M0 0 C4.09871954 3.64981216 6.8195061 8.04081531 9.75 12.625 C10.25660156 13.40101562 10.76320313 14.17703125 11.28515625 14.9765625 C15 20.74408272 15 20.74408272 15 23 C14.34 23 13.68 23 13 23 C10.82796 20.03812728 9.16438003 17.49314009 8 14 C7.34 13.67 6.68 13.34 6 13 C4.98234073 11.00892752 3.98422146 9.00781177 3 7 C2.443125 6.278125 1.88625 5.55625 1.3125 4.8125 C0 3 0 3 0 0 Z " fill="#d87943" transform="translate(336,89)"/>
<path d="M0 0 C0 0.33 0 0.66 0 1 C-5.28 1 -10.56 1 -16 1 C-16.33 1.99 -16.66 2.98 -17 4 C-18.84765625 4.73046875 -18.84765625 4.73046875 -21.0625 5.1875 C-21.79597656 5.34605469 -22.52945313 5.50460938 -23.28515625 5.66796875 C-24.13400391 5.83232422 -24.13400391 5.83232422 -25 6 C-24.67 5.01 -24.34 4.02 -24 3 C-16.09643588 -0.95178206 -8.66564934 -2.10076348 0 0 Z " fill="#d87943" transform="translate(161,90)"/>
<path d="M0 0 C0.33 0.99 0.66 1.98 1 3 C-0.6953125 5.55859375 -0.6953125 5.55859375 -3.125 8.4375 C-4.30449219 9.85869141 -4.30449219 9.85869141 -5.5078125 11.30859375 C-7.87951177 13.86988027 -10.09507599 16.06179661 -13 18 C-13.99 17.67 -14.98 17.34 -16 17 C-11.25 13 -11.25 13 -9 13 C-9 12.01 -9 11.02 -9 10 C-7.34997172 8.64613064 -5.6825613 7.31321858 -4 6 C-3.67 5.01 -3.34 4.02 -3 3 C-1.4375 1.3125 -1.4375 1.3125 0 0 Z " fill="#d87943" transform="translate(247,371)"/>
<path d="M0 0 C5.26630019 3.40554079 10.2703193 6.87668862 15 11 C12.35261084 12.4606285 11.10551666 13 8 13 C8.66 12.01 9.32 11.02 10 10 C9.38125 9.731875 8.7625 9.46375 8.125 9.1875 C6 8 6 8 4 5 C1.94074861 4.27617533 1.94074861 4.27617533 0 4 C0 2.68 0 1.36 0 0 Z " fill="#d87943" transform="translate(273,26)"/>
<path d="M0 0 C0.66 0 1.32 0 2 0 C2 0.66 2 1.32 2 2 C2.66 2 3.32 2 4 2 C4.495 2.721875 4.99 3.44375 5.5 4.1875 C9.00868416 8.13476968 13.23586652 9.86341342 18 12 C18 12.33 18 12.66 18 13 C11.54989753 12.73124573 7.70327724 10.36586822 3 6 C0 2.41216216 0 2.41216216 0 0 Z " fill="#d87943" transform="translate(190,380)"/>
<path d="M0 0 C0.66 0.33 1.32 0.66 2 1 C0.77801556 2.58888299 -0.45294475 4.17086464 -1.6875 5.75 C-2.71423828 7.07257813 -2.71423828 7.07257813 -3.76171875 8.421875 C-5.98461943 10.98228416 -8.29250406 12.97056346 -11 15 C-10.49259538 10.60249328 -7.91706686 8.13051078 -5 5 C-4.34 5 -3.68 5 -3 5 C-2.690625 4.360625 -2.38125 3.72125 -2.0625 3.0625 C-1 1 -1 1 0 0 Z " fill="#d87943" transform="translate(147,337)"/>
<path d="M0 0 C1.70703125 0.109375 1.70703125 0.109375 4 1 C5.73167955 3.06055315 7.20844895 5.02289513 8.6875 7.25 C9.09033203 7.82363281 9.49316406 8.39726562 9.90820312 8.98828125 C12.14702792 12.28089125 13.55921285 15.02544465 14 19 C11.18544496 15.52913616 8.49669105 11.99353175 5.875 8.375 C5.19179687 7.43398437 4.50859375 6.49296875 3.8046875 5.5234375 C2.50416543 3.70495859 1.24012694 1.86019041 0 0 Z " fill="#d87943" transform="translate(88,240)"/>
<path d="M0 0 C0.33 0.66 0.66 1.32 1 2 C0.37915039 3.69580078 0.37915039 3.69580078 -0.65234375 5.6953125 C-1.01650391 6.41074219 -1.38066406 7.12617188 -1.75585938 7.86328125 C-2.14580078 8.60964844 -2.53574219 9.35601562 -2.9375 10.125 C-3.32357422 10.87910156 -3.70964844 11.63320313 -4.10742188 12.41015625 C-5.06452132 14.27709097 -6.03136106 16.13902628 -7 18 C-7.66 18 -8.32 18 -9 18 C-8.01 14.7 -7.02 11.4 -6 8 C-5.34 8 -4.68 8 -4 8 C-3.566875 6.8553125 -3.566875 6.8553125 -3.125 5.6875 C-2 3 -2 3 0 0 Z " fill="#d87943" transform="translate(364,383)"/>
<path d="M0 0 C5.97435122 3.68878981 11.75209853 7.31943923 17 12 C16.01 12.495 16.01 12.495 15 13 C12.5249829 11.88568235 10.32116581 10.41849022 8 9 C8 8.34 8 7.68 8 7 C7.01 7 6.02 7 5 7 C2.3125 4.625 2.3125 4.625 0 2 C0 1.34 0 0.68 0 0 Z " fill="#d87943" transform="translate(197,109)"/>
<path d="M0 0 C0.66 0 1.32 0 2 0 C1.33392561 4.40958108 -0.26624729 8.26572186 -2.0625 12.3125 C-2.34416016 12.95767578 -2.62582031 13.60285156 -2.91601562 14.26757812 C-3.6062743 15.84698358 -4.30253198 17.42376493 -5 19 C-6.26351118 15.20946645 -5.4910584 13.78892667 -4.1875 10.0625 C-3.83042969 9.02222656 -3.47335937 7.98195313 -3.10546875 6.91015625 C-2.19258686 4.50698661 -1.20651784 2.26563304 0 0 Z " fill="#d87943" transform="translate(371,363)"/>
<path d="M0 0 C0.66 0.33 1.32 0.66 2 1 C2 1.99 2 2.98 2 4 C1.401875 4.556875 0.80375 5.11375 0.1875 5.6875 C-2.80039128 8.84612792 -3.6299096 11.88972879 -5 16 C-5.8852947 13.52455813 -6.09093521 12.28988738 -5.29296875 9.74609375 C-4.92816406 8.98425781 -4.56335938 8.22242188 -4.1875 7.4375 C-3.83042969 6.67308594 -3.47335938 5.90867187 -3.10546875 5.12109375 C-2 3 -2 3 0 0 Z " fill="#d87943" transform="translate(193,345)"/>
<path d="M0 0 C4.55061716 0.53536672 7.2977868 2.37759898 11 5 C11.94875 5.53625 12.8975 6.0725 13.875 6.625 C14.57625 7.07875 15.2775 7.5325 16 8 C16 8.66 16 9.32 16 10 C9.99535001 7.93590157 4.35689005 4.64103505 0 0 Z " fill="#d87943" transform="translate(64,223)"/>
<path d="M0 0 C1.485 0.99 1.485 0.99 3 2 C3 2.99 3 3.98 3 5 C3.99 5.33 4.98 5.66 6 6 C6 8.97 6 11.94 6 15 C4.33251253 12.49876879 3.10045639 10.22323643 1.875 7.5 C1.52179688 6.7265625 1.16859375 5.953125 0.8046875 5.15625 C0 3 0 3 0 0 Z " fill="#d87943" transform="translate(209,213)"/>
<path d="M0 0 C2.475 0.495 2.475 0.495 5 1 C4.67 1.99 4.34 2.98 4 4 C4.66 4 5.32 4 6 4 C6.28875 4.7425 6.5775 5.485 6.875 6.25 C7.82368263 8.56900199 8.86559779 10.76932676 10 13 C5.89601599 9.72805658 2.28938344 6.84810612 0 2 C0 1.34 0 0.68 0 0 Z " fill="#d87943" transform="translate(179,170)"/>
<path d="M0 0 C3.28788824 3.11016455 5.83735988 6.01618925 8 10 C6.35 10 4.7 10 3 10 C2.01 6.7 1.02 3.4 0 0 Z " fill="#d87943" transform="translate(240,149)"/>
<path d="M0 0 C-1.33934244 2.67868487 -2.51692397 2.74954078 -5.3125 3.6875 C-6.09238281 3.95949219 -6.87226563 4.23148437 -7.67578125 4.51171875 C-10.18274511 5.03839183 -11.60132343 4.8178554 -14 4 C-9.22642128 1.28608722 -5.65611463 -0.56561146 0 0 Z " fill="#d87943" transform="translate(215,2)"/>
<path d="M0 0 C0.33 0 0.66 0 1 0 C1.34641555 4.84981776 0.59367168 7.8693377 -2 12 C-2.99 12.33 -3.98 12.66 -5 13 C-3.58192622 8.52761347 -1.88695626 4.28853694 0 0 Z " fill="#d87943" transform="translate(310,355)"/>
<path d="M0 0 C0.66 0 1.32 0 2 0 C3.125 5.625 3.125 5.625 2 9 C1.34 9 0.68 9 0 9 C-1.125 6.1875 -1.125 6.1875 -2 3 C-1.34 2.01 -0.68 1.02 0 0 Z " fill="#d87943" transform="translate(372,354)"/>
<path d="M0 0 C0.68359375 1.640625 0.68359375 1.640625 1 4 C-0.21484375 6.796875 -0.21484375 6.796875 -1.9375 9.75 C-2.50339844 10.73484375 -3.06929687 11.7196875 -3.65234375 12.734375 C-4.09707031 13.48203125 -4.54179687 14.2296875 -5 15 C-5.68359375 13.359375 -5.68359375 13.359375 -6 11 C-4.78515625 8.203125 -4.78515625 8.203125 -3.0625 5.25 C-2.49660156 4.26515625 -1.93070313 3.2803125 -1.34765625 2.265625 C-0.90292969 1.51796875 -0.45820313 0.7703125 0 0 Z " fill="#d87943" transform="translate(208,320)"/>
<path d="M0 0 C3.38749978 1.45178562 5.45161209 3.36940603 8 6 C8.99 6.66 9.98 7.32 11 8 C10.67 9.32 10.34 10.64 10 12 C8.33032474 10.19019128 6.66417692 8.3773524 5 6.5625 C4.28457031 5.7880957 4.28457031 5.7880957 3.5546875 4.99804688 C0 1.11328125 0 1.11328125 0 0 Z " fill="#d87943" transform="translate(265,101)"/>
<path d="M0 0 C0.47050781 0.40992188 0.94101562 0.81984375 1.42578125 1.2421875 C2.04839844 1.78101563 2.67101562 2.31984375 3.3125 2.875 C3.92738281 3.40867188 4.54226563 3.94234375 5.17578125 4.4921875 C7.13498212 6.1640447 7.13498212 6.1640447 10 8 C10 8.66 10 9.32 10 10 C7.41300506 8.85022447 5.61611621 7.67229432 3.4375 5.8125 C2.633125 5.214375 1.82875 4.61625 1 4 C0.01 4.33 -0.98 4.66 -2 5 C-1.34 3.35 -0.68 1.7 0 0 Z " fill="#d87943" transform="translate(290,39)"/>
<path d="M0 0 C1.32 0.33 2.64 0.66 4 1 C4.33 2.98 4.66 4.96 5 7 C3.68 7.33 2.36 7.66 1 8 C0.67 5.36 0.34 2.72 0 0 Z " fill="#d87943" transform="translate(187,370)"/>
<path d="M0 0 C0.66 0 1.32 0 2 0 C2.33 1.65 2.66 3.3 3 5 C3.66 5 4.32 5 5 5 C6.0625 6.8125 6.0625 6.8125 7 9 C6.67 9.99 6.34 10.98 6 12 C4.99157547 10.56839732 3.99352109 9.12948547 3 7.6875 C2.1646875 6.48673828 2.1646875 6.48673828 1.3125 5.26171875 C0 3 0 3 0 0 Z " fill="#d87943" transform="translate(87,339)"/>
<path d="M0 0 C0.928125 0.33 1.85625 0.66 2.8125 1 C5.92029291 2.14967004 5.92029291 2.14967004 9 2 C8.67 3.65 8.34 5.3 8 7 C2.33846154 4.53846154 2.33846154 4.53846154 0.625 1.8125 C0.41875 1.214375 0.2125 0.61625 0 0 Z " fill="#d87943" transform="translate(276,113)"/>
<path d="M0 0 C1.63197842 0.73469139 3.25541307 1.48838122 4.875 2.25 C5.77992188 2.66765625 6.68484375 3.0853125 7.6171875 3.515625 C10.19972189 5.12441692 10.95607186 6.19219328 12 9 C10.18146744 8.07425608 8.37031117 7.13401005 6.5625 6.1875 C5.55316406 5.66542969 4.54382813 5.14335938 3.50390625 4.60546875 C1 3 1 3 0 0 Z " fill="#d87943" transform="translate(184,101)"/>
<path d="M0 0 C5.28137429 0.51525603 8.57221156 2.25477117 13 5 C13 5.66 13 6.32 13 7 C8.50202887 5.31326082 4.27113698 3.18326108 0 1 C0 0.67 0 0.34 0 0 Z " fill="#d87943" transform="translate(210,61)"/>
<path d="M0 0 C0.99 0.33 1.98 0.66 3 1 C2.32829194 4.8063457 1.27253436 8.35206816 0 12 C-0.33 12 -0.66 12 -1 12 C-1 9.69 -1 7.38 -1 5 C-0.01 4.67 0.98 4.34 2 4 C1.34 3.67 0.68 3.34 0 3 C0 2.01 0 1.02 0 0 Z " fill="#d87943" transform="translate(274,299)"/>
<path d="M0 0 C4.50884026 2.31883213 6.93906776 5.06451569 10 9 C5.40693504 7.5140084 2.56430755 5.14985318 -1 2 C-0.67 1.34 -0.34 0.68 0 0 Z " fill="#d87943" transform="translate(54,214)"/>
<path d="M0 0 C0.66 0 1.32 0 2 0 C2.83848804 1.45537568 3.67063934 2.91440373 4.5 4.375 C5.19609375 5.59316406 5.19609375 5.59316406 5.90625 6.8359375 C7 9 7 9 7 11 C6.34 11 5.68 11 5 11 C4.16151196 9.54462432 3.32936066 8.08559627 2.5 6.625 C1.80390625 5.40683594 1.80390625 5.40683594 1.09375 4.1640625 C0 2 0 2 0 0 Z " fill="#d87943" transform="translate(356,123)"/>
<path d="M0 0 C1.32 0 2.64 0 4 0 C8 6.625 8 6.625 8 10 C4.74475735 6.97727468 2.38179263 3.74281699 0 0 Z " fill="#d87943" transform="translate(189,184)"/>
<path d="M0 0 C1.32 0.33 2.64 0.66 4 1 C5.88594563 5.04131206 6.10292424 6.58830306 5 11 C3.35 7.37 1.7 3.74 0 0 Z " fill="#d87943" transform="translate(304,154)"/>
<path d="M0 0 C4.99464924 0.47568088 8.02785403 1.95160891 12 5 C12.33 5.66 12.66 6.32 13 7 C8.50202887 5.31326082 4.27113698 3.18326108 0 1 C0 0.67 0 0.34 0 0 Z " fill="#d87943" transform="translate(138,145)"/>
<path d="M0 0 C0.99 0.33 1.98 0.66 3 1 C0.525 5.455 0.525 5.455 -2 10 C-3.04449911 6.86650268 -2.93423645 6.01031744 -2 3 C-1.34 3 -0.68 3 0 3 C0 2.01 0 1.02 0 0 Z " fill="#d87943" transform="translate(352,403)"/>
<path d="M0 0 C3.53586014 3.17320782 5.58578031 5.16743695 6 10 C3.66475218 7.74259377 1.81294927 5.7194239 0 3 C0 2.01 0 1.02 0 0 Z " fill="#d87943" transform="translate(143,210)"/>
<path d="M0 0 C4.29 0 8.58 0 13 0 C13 0.33 13 0.66 13 1 C9.7 1.66 6.4 2.32 3 3 C3 2.34 3 1.68 3 1 C2.01 0.67 1.02 0.34 0 0 Z " fill="#d87943" transform="translate(68,169)"/>
<path d="M0 0 C3.98175544 2.10148204 6.35039045 4.36905358 9 8 C5.08158173 6.69386058 2.67359191 5.16870152 0 2 C0 1.34 0 0.68 0 0 Z " fill="#d87943" transform="translate(218,126)"/>
<path d="M0 0 C0.33 0.66 0.66 1.32 1 2 C0.0625 4.125 0.0625 4.125 -1 6 C-1.66 6 -2.32 6 -3 6 C-3.33 6.99 -3.66 7.98 -4 9 C-4.66 8.67 -5.32 8.34 -6 8 C-2.25 2.25 -2.25 2.25 0 0 Z " fill="#d87943" transform="translate(95,306)"/>
<path d="M0 0 C2.74277578 3.19990508 4.6302836 6.00499382 6 10 C3 9 3 9 1.3125 6.6875 C0 4 0 4 0 0 Z " fill="#d87943" transform="translate(351,112)"/>
<path d="M0 0 C0.33 0 0.66 0 1 0 C1.33 3.96 1.66 7.92 2 12 C1.01 12.495 1.01 12.495 0 13 C0 11.68 0 10.36 0 9 C-0.66 8.67 -1.32 8.34 -2 8 C-1.34 8 -0.68 8 0 8 C0 5.36 0 2.72 0 0 Z " fill="#d87943" transform="translate(107,274)"/>
<path d="M0 0 C2 3.75 2 3.75 2 6 C0.35 6.33 -1.3 6.66 -3 7 C-2.01 4.69 -1.02 2.38 0 0 Z " fill="#d87943" transform="translate(293,417)"/>
<path d="M0 0 C5 2 5 2 10 4 C10 4.33 10 4.66 10 5 C3.375 4.25 3.375 4.25 0 2 C0 1.34 0 0.68 0 0 Z " fill="#d87943" transform="translate(198,388)"/>
<path d="M0 0 C3.35595828 0.59927826 5.37801226 1.84622436 8 4 C7.67 4.99 7.34 5.98 7 7 C5.83040013 6.02433888 4.66438823 5.044375 3.5 4.0625 C2.8503125 3.51722656 2.200625 2.97195312 1.53125 2.41015625 C1.0259375 1.94480469 0.520625 1.47945312 0 1 C0 0.67 0 0.34 0 0 Z " fill="#d87943" transform="translate(80,233)"/>
<path d="M0 0 C2.64752004 2.57784846 4.94432065 4.91648098 7 8 C6.01 8.495 6.01 8.495 5 9 C0 3.375 0 3.375 0 0 Z " fill="#d87943" transform="translate(136,201)"/>
<path d="M0 0 C0.99 0.99 1.98 1.98 3 3 C2.67 3.99 2.34 4.98 2 6 C0.68 6 -0.64 6 -2 6 C-1.34 4.02 -0.68 2.04 0 0 Z " fill="#d87943" transform="translate(53,179)"/>
</svg>
