<svg xmlns="http://www.w3.org/2000/svg" xmlns:xlink="http://www.w3.org/1999/xlink" width="230" zoomAndPan="magnify" viewBox="0 0 172.5 74.999997" height="100" preserveAspectRatio="xMidYMid meet" version="1.0"><defs><g/><clipPath id="1156ddd229"><path d="M 24 2.6875 L 56 2.6875 L 56 70.742188 L 24 70.742188 Z M 24 2.6875 " clip-rule="nonzero"/></clipPath><clipPath id="a8946b2c36"><path d="M 29 2.6875 L 38 2.6875 L 38 7 L 29 7 Z M 29 2.6875 " clip-rule="nonzero"/></clipPath><clipPath id="dc4620b915"><path d="M 40 68 L 45 68 L 45 70.742188 L 40 70.742188 Z M 40 68 " clip-rule="nonzero"/></clipPath><clipPath id="317a457e1a"><path d="M 24 2.6875 L 29 2.6875 L 29 8 L 24 8 Z M 24 2.6875 " clip-rule="nonzero"/></clipPath><clipPath id="73cb0ca299"><path d="M 26 2.6875 L 29 2.6875 L 29 4 L 26 4 Z M 26 2.6875 " clip-rule="nonzero"/></clipPath><clipPath id="2ce27fa151"><rect x="0" width="116" y="0" height="66"/></clipPath></defs><g clip-path="url(#1156ddd229)"><path fill="#d87943" d="M 39.207031 8.023438 C 39.839844 8.542969 40.441406 9.089844 41.039062 9.648438 C 41.292969 9.875 41.546875 10.101562 41.800781 10.324219 C 43.21875 11.601562 44.5 12.945312 45.679688 14.441406 C 45.8125 14.609375 45.949219 14.773438 46.082031 14.9375 C 47.113281 16.207031 48.019531 17.53125 48.882812 18.917969 C 49.066406 19.214844 49.253906 19.511719 49.441406 19.804688 C 53.769531 26.699219 55.6875 34.953125 55.644531 43.019531 C 55.644531 43.292969 55.644531 43.292969 55.644531 43.570312 C 55.632812 46.285156 55.539062 48.902344 54.957031 51.5625 C 54.921875 51.726562 54.890625 51.894531 54.851562 52.0625 C 53.660156 57.640625 51.703125 63.574219 48.152344 68.113281 C 48.019531 68.289062 48.019531 68.289062 47.882812 68.472656 C 47.140625 69.402344 46.101562 70.21875 44.90625 70.433594 C 43.40625 70.597656 42.285156 70.363281 41.039062 69.503906 C 40.0625 68.660156 39.558594 67.769531 39.445312 66.488281 C 39.382812 64.558594 40.011719 63.265625 40.992188 61.625 C 42.828125 58.464844 44.238281 55.179688 45.109375 51.621094 C 45.160156 51.402344 45.160156 51.402344 45.214844 51.179688 C 45.816406 48.578125 46.074219 46.019531 46.054688 43.355469 C 46.054688 43.210938 46.054688 43.066406 46.054688 42.917969 C 46.042969 40.496094 45.886719 38.160156 45.371094 35.785156 C 45.335938 35.632812 45.304688 35.480469 45.269531 35.320312 C 44.578125 32.226562 43.46875 29.296875 41.964844 26.507812 C 41.914062 26.40625 41.859375 26.300781 41.800781 26.195312 C 40.5625 23.871094 39.0625 21.832031 37.328125 19.855469 C 37.203125 19.714844 37.078125 19.570312 36.949219 19.425781 C 35.765625 18.097656 34.546875 16.9375 33.152344 15.835938 C 33.015625 15.726562 32.878906 15.617188 32.738281 15.503906 C 31.027344 14.164062 29.132812 13.007812 27.167969 12.085938 C 26.003906 11.523438 24.960938 10.738281 24.445312 9.523438 C 23.953125 8.019531 23.957031 6.761719 24.578125 5.296875 C 25.179688 4.1875 26.238281 3.378906 27.429688 2.996094 C 31.652344 2.03125 36.128906 5.5625 39.207031 8.023438 Z M 39.207031 8.023438 " fill-opacity="1" fill-rule="nonzero"/></g><path fill="#d87943" d="M 26.105469 19.769531 C 26.613281 20.144531 27.097656 20.539062 27.582031 20.9375 C 27.671875 21.011719 27.761719 21.085938 27.855469 21.164062 C 33.816406 26.105469 37.609375 32.867188 38.5625 40.582031 C 38.589844 41.023438 38.597656 41.464844 38.601562 41.910156 C 38.601562 42.097656 38.601562 42.097656 38.605469 42.292969 C 38.632812 45.074219 38.609375 47.761719 37.945312 50.480469 C 37.898438 50.6875 37.898438 50.6875 37.847656 50.894531 C 36.933594 54.675781 35.289062 58.277344 32.839844 61.308594 C 32.75 61.425781 32.660156 61.542969 32.566406 61.664062 C 31.625 62.832031 30.320312 63.640625 28.820312 63.84375 C 27.34375 63.886719 26.171875 63.558594 25.078125 62.535156 C 24.148438 61.441406 23.816406 60.324219 23.878906 58.898438 C 24.027344 57.554688 24.554688 56.605469 25.308594 55.507812 C 28.441406 50.898438 29.847656 45.886719 28.816406 40.355469 C 27.660156 34.734375 24.082031 30.046875 19.355469 26.914062 C 18.636719 26.449219 17.894531 26.035156 17.144531 25.628906 C 15.695312 24.835938 14.699219 23.972656 14.191406 22.355469 C 13.929688 21.007812 14.03125 19.644531 14.746094 18.464844 C 17.832031 14.445312 22.921875 17.476562 26.105469 19.769531 Z M 26.105469 19.769531 " fill-opacity="1" fill-rule="nonzero"/><path fill="#d87943" d="M 13.300781 31.210938 C 13.746094 31.535156 14.171875 31.875 14.589844 32.230469 C 14.722656 32.339844 14.855469 32.449219 14.992188 32.558594 C 18.417969 35.503906 20.46875 39.640625 20.90625 44.113281 C 21.222656 48.257812 20.210938 52.460938 17.597656 55.757812 C 16.421875 57.101562 15.160156 58.207031 13.320312 58.40625 C 11.886719 58.449219 10.71875 57.976562 9.601562 57.085938 C 8.691406 56.199219 8.242188 55.101562 8.203125 53.84375 C 8.230469 52.53125 8.546875 51.539062 9.371094 50.519531 C 10.53125 49.027344 11.480469 47.34375 11.386719 45.394531 C 11.019531 42.675781 9.628906 40.550781 7.476562 38.878906 C 6.757812 38.382812 6.007812 37.933594 5.253906 37.492188 C 3.691406 36.570312 2.6875 35.738281 2.21875 33.929688 C 2.03125 32.589844 2.320312 31.464844 3.0625 30.339844 C 5.863281 26.808594 10.355469 29.207031 13.300781 31.210938 Z M 13.300781 31.210938 " fill-opacity="1" fill-rule="nonzero"/><path fill="#d87943" d="M 54.957031 35.324219 C 55.007812 35.324219 55.0625 35.324219 55.113281 35.324219 C 55.523438 37.894531 55.65625 40.40625 55.644531 43.007812 C 55.644531 43.191406 55.644531 43.371094 55.644531 43.558594 C 55.636719 46.273438 55.519531 48.898438 54.957031 51.5625 C 54.90625 51.820312 54.855469 52.078125 54.804688 52.335938 C 54.703125 52.285156 54.601562 52.234375 54.496094 52.179688 C 54.523438 51.996094 54.554688 51.808594 54.585938 51.617188 C 55.332031 46.789062 55.675781 41.714844 54.867188 36.867188 C 54.800781 36.394531 54.78125 35.953125 54.804688 35.476562 C 54.855469 35.425781 54.90625 35.375 54.957031 35.324219 Z M 54.957031 35.324219 " fill-opacity="1" fill-rule="nonzero"/><path fill="#d87943" d="M 13.300781 31.210938 C 14.304688 31.945312 15.230469 32.773438 16.136719 33.621094 C 15.90625 33.699219 15.90625 33.699219 15.671875 33.777344 C 15.242188 33.488281 14.933594 33.199219 14.621094 32.785156 C 14.25 32.347656 13.890625 32.085938 13.410156 31.777344 C 13.246094 31.667969 13.082031 31.5625 12.914062 31.453125 C 12.75 31.351562 12.589844 31.25 12.425781 31.148438 C 12.292969 31.0625 12.160156 30.980469 12.027344 30.894531 C 9.976562 29.632812 8.082031 28.683594 5.621094 28.980469 C 5.097656 29.171875 4.675781 29.425781 4.226562 29.753906 C 4.09375 29.847656 4.09375 29.847656 3.953125 29.941406 C 3.3125 30.410156 3.09375 30.886719 2.835938 31.609375 C 2.734375 31.609375 2.632812 31.609375 2.527344 31.609375 C 2.734375 30.683594 3.222656 30.066406 3.917969 29.445312 C 7.113281 27.425781 10.5 29.304688 13.300781 31.210938 Z M 13.300781 31.210938 " fill-opacity="1" fill-rule="nonzero"/><path fill="#d87943" d="M 35.46875 56.511719 C 35.625 56.589844 35.625 56.589844 35.78125 56.667969 C 34.414062 59.394531 32.746094 62.492188 29.761719 63.648438 C 28.335938 64.050781 27.101562 63.84375 25.820312 63.128906 C 25.246094 62.738281 24.886719 62.34375 24.488281 61.769531 C 24.488281 61.667969 24.488281 61.566406 24.488281 61.460938 C 24.589844 61.460938 24.695312 61.460938 24.796875 61.460938 C 24.796875 61.5625 24.796875 61.664062 24.796875 61.769531 C 24.902344 61.769531 25.003906 61.769531 25.109375 61.769531 C 25.183594 61.882812 25.261719 61.992188 25.339844 62.109375 C 26.003906 62.859375 26.78125 63.265625 27.785156 63.371094 C 28.65625 63.378906 29.511719 63.320312 30.367188 63.164062 C 30.367188 63.0625 30.367188 62.957031 30.367188 62.851562 C 31.390625 62.253906 31.390625 62.253906 31.914062 62.082031 C 31.914062 61.925781 31.914062 61.773438 31.914062 61.617188 C 32.167969 61.40625 32.425781 61.199219 32.6875 60.996094 C 32.761719 60.769531 32.761719 60.769531 32.839844 60.535156 C 33.046875 60.328125 33.253906 60.121094 33.460938 59.914062 C 34.222656 58.839844 34.855469 57.675781 35.46875 56.511719 Z M 35.46875 56.511719 " fill-opacity="1" fill-rule="nonzero"/><path fill="#d87943" d="M 33.460938 27.28125 C 35.957031 30.246094 38.386719 35.554688 38.253906 39.5 C 38.152344 39.5 38.050781 39.5 37.945312 39.5 C 37.746094 39.101562 37.722656 38.75 37.664062 38.308594 C 37.148438 34.796875 37.148438 34.796875 35.46875 31.765625 C 35.429688 31.613281 35.390625 31.457031 35.351562 31.300781 C 35.144531 30.515625 34.710938 29.863281 34.292969 29.175781 C 34.132812 28.914062 33.976562 28.65625 33.820312 28.394531 C 33.753906 28.28125 33.683594 28.167969 33.609375 28.050781 C 33.460938 27.746094 33.460938 27.746094 33.460938 27.28125 Z M 33.460938 27.28125 " fill-opacity="1" fill-rule="nonzero"/><path fill="#d87943" d="M 19.847656 39.964844 C 20.214844 40.511719 20.335938 41.050781 20.476562 41.683594 C 20.503906 41.804688 20.53125 41.921875 20.558594 42.046875 C 20.738281 42.847656 20.902344 43.628906 20.933594 44.449219 C 20.941406 44.648438 20.949219 44.851562 20.957031 45.058594 C 21.007812 47.089844 20.738281 48.996094 20.160156 50.945312 C 20.109375 50.945312 20.058594 50.945312 20.003906 50.945312 C 20.082031 50.113281 20.171875 49.285156 20.28125 48.457031 C 20.628906 45.699219 20.507812 43.058594 19.746094 40.378906 C 19.730469 40.292969 19.714844 40.207031 19.695312 40.117188 C 19.746094 40.066406 19.796875 40.015625 19.847656 39.964844 Z M 19.847656 39.964844 " fill-opacity="1" fill-rule="nonzero"/><path fill="#d87943" d="M 51.246094 23.414062 C 51.597656 23.765625 51.707031 24.039062 51.890625 24.496094 C 51.957031 24.65625 52.019531 24.8125 52.085938 24.976562 C 52.152344 25.148438 52.222656 25.316406 52.289062 25.492188 C 52.359375 25.664062 52.429688 25.839844 52.5 26.019531 C 53.082031 27.5 53.585938 29 54.03125 30.527344 C 54.089844 30.722656 54.148438 30.914062 54.210938 31.113281 C 54.339844 31.609375 54.339844 31.609375 54.339844 32.230469 C 54.035156 32.109375 54.035156 32.109375 53.722656 31.921875 C 53.683594 31.609375 53.648438 31.296875 53.628906 30.984375 C 53.339844 28.855469 52.378906 26.371094 51.382812 24.480469 C 51.210938 24.109375 51.222656 23.816406 51.246094 23.414062 Z M 51.246094 23.414062 " fill-opacity="1" fill-rule="nonzero"/><path fill="#d87943" d="M 42.121094 59.605469 C 42.28125 60.035156 42.28125 60.203125 42.132812 60.648438 C 42.050781 60.820312 42.050781 60.820312 41.964844 60.996094 C 41.863281 60.996094 41.761719 60.996094 41.65625 60.996094 C 41.632812 61.125 41.632812 61.125 41.609375 61.257812 C 41.480469 61.691406 41.277344 62.003906 41.039062 62.390625 C 40.90625 62.621094 40.773438 62.851562 40.640625 63.085938 C 40.578125 63.199219 40.515625 63.3125 40.449219 63.429688 C 40.035156 64.230469 39.90625 64.871094 39.917969 65.773438 C 39.917969 65.878906 39.914062 65.984375 39.914062 66.09375 C 39.917969 66.820312 40.039062 67.421875 40.265625 68.113281 C 40.113281 68.0625 39.960938 68.011719 39.800781 67.957031 C 39.496094 67.273438 39.441406 66.648438 39.433594 65.90625 C 39.429688 65.71875 39.425781 65.53125 39.421875 65.335938 C 39.507812 63.921875 40.371094 62.648438 41.066406 61.460938 C 41.234375 61.175781 41.402344 60.886719 41.566406 60.601562 C 41.640625 60.476562 41.714844 60.351562 41.789062 60.222656 C 41.90625 60.019531 42.015625 59.816406 42.121094 59.605469 Z M 42.121094 59.605469 " fill-opacity="1" fill-rule="nonzero"/><g clip-path="url(#a8946b2c36)"><path fill="#d87943" d="M 29.4375 2.996094 C 31.851562 3.039062 33.996094 4.382812 35.964844 5.65625 C 36.066406 5.722656 36.171875 5.789062 36.277344 5.855469 C 36.535156 6.027344 36.777344 6.210938 37.015625 6.402344 C 37.015625 6.554688 37.015625 6.707031 37.015625 6.863281 C 36.53125 6.628906 36.074219 6.390625 35.625 6.089844 C 35.625 5.988281 35.625 5.886719 35.625 5.78125 C 35.546875 5.742188 35.46875 5.703125 35.386719 5.664062 C 34.539062 5.238281 33.691406 4.8125 32.839844 4.390625 C 32.839844 4.289062 32.839844 4.1875 32.839844 4.082031 C 32.753906 4.074219 32.667969 4.070312 32.582031 4.0625 C 31.828125 4 31.207031 3.855469 30.511719 3.570312 C 30.054688 3.40625 29.609375 3.359375 29.128906 3.308594 C 29.230469 3.207031 29.332031 3.101562 29.4375 2.996094 Z M 29.4375 2.996094 " fill-opacity="1" fill-rule="nonzero"/></g><path fill="#d87943" d="M 18.457031 26.199219 C 19.128906 26.28125 19.515625 26.515625 20.050781 26.921875 C 20.199219 27.035156 20.347656 27.144531 20.5 27.257812 C 20.640625 27.367188 20.785156 27.476562 20.933594 27.589844 C 21.058594 27.679688 21.1875 27.773438 21.316406 27.867188 C 21.484375 27.988281 21.484375 27.988281 21.65625 28.113281 C 21.757812 28.183594 21.855469 28.253906 21.957031 28.328125 C 22.027344 28.390625 22.097656 28.453125 22.167969 28.519531 C 22.167969 28.621094 22.167969 28.722656 22.167969 28.828125 C 22.628906 28.929688 23.089844 29.03125 23.5625 29.136719 C 23.484375 29.367188 23.484375 29.367188 23.40625 29.601562 C 23.507812 29.601562 23.609375 29.601562 23.714844 29.601562 C 23.761719 29.714844 23.804688 29.832031 23.851562 29.949219 C 24 30.308594 24.160156 30.648438 24.335938 30.992188 C 23.832031 30.570312 23.335938 30.144531 22.859375 29.6875 C 21.664062 28.550781 20.378906 27.609375 19.015625 26.6875 C 18.765625 26.507812 18.765625 26.507812 18.457031 26.199219 Z M 18.457031 26.199219 " fill-opacity="1" fill-rule="nonzero"/><path fill="#d87943" d="M 45.371094 50.636719 C 45.472656 50.636719 45.574219 50.636719 45.679688 50.636719 C 45.535156 51.632812 45.371094 52.582031 45.027344 53.527344 C 44.886719 53.9375 44.78125 54.347656 44.671875 54.761719 C 44.503906 55.394531 44.292969 55.9375 43.976562 56.511719 C 43.816406 56.871094 43.664062 57.234375 43.511719 57.59375 C 43.410156 57.59375 43.308594 57.59375 43.203125 57.59375 C 43.457031 56.835938 43.710938 56.078125 43.96875 55.320312 C 44.074219 55.003906 44.179688 54.691406 44.285156 54.375 C 44.367188 54.144531 44.367188 54.144531 44.449219 53.90625 C 44.808594 52.828125 45.109375 51.742188 45.371094 50.636719 Z M 45.371094 50.636719 " fill-opacity="1" fill-rule="nonzero"/><path fill="#d87943" d="M 9.640625 56.976562 C 10.09375 57.074219 10.453125 57.21875 10.859375 57.441406 C 11.386719 57.710938 11.828125 57.855469 12.425781 57.902344 C 12.613281 57.921875 12.800781 57.9375 12.996094 57.953125 C 13.71875 57.949219 14.328125 57.683594 14.988281 57.40625 C 15.363281 57.285156 15.363281 57.285156 15.828125 57.441406 C 15.582031 57.566406 15.339844 57.691406 15.09375 57.816406 C 14.957031 57.886719 14.820312 57.957031 14.679688 58.027344 C 13.734375 58.464844 12.707031 58.535156 11.703125 58.25 C 10.953125 57.960938 10.28125 57.621094 9.640625 57.132812 C 9.640625 57.078125 9.640625 57.027344 9.640625 56.976562 Z M 9.640625 56.976562 " fill-opacity="1" fill-rule="nonzero"/><path fill="#d87943" d="M 8.714844 39.808594 C 8.980469 39.828125 8.980469 39.828125 9.332031 39.964844 C 9.585938 40.265625 9.800781 40.550781 10.019531 40.882812 C 10.078125 40.972656 10.140625 41.0625 10.203125 41.15625 C 11.09375 42.5 11.675781 43.628906 11.660156 45.261719 C 11.660156 45.457031 11.660156 45.652344 11.65625 45.851562 C 11.65625 46 11.652344 46.152344 11.652344 46.304688 C 11.601562 46.304688 11.550781 46.304688 11.496094 46.304688 C 11.472656 46.132812 11.445312 45.960938 11.417969 45.785156 C 11.058594 43.535156 10.4375 42.066406 9.023438 40.273438 C 8.921875 40.121094 8.820312 39.964844 8.714844 39.808594 Z M 8.714844 39.808594 " fill-opacity="1" fill-rule="nonzero"/><path fill="#d87943" d="M 37.789062 49.707031 C 37.839844 49.707031 37.894531 49.707031 37.945312 49.707031 C 37.835938 51.746094 37.078125 53.738281 36.242188 55.585938 C 36.097656 55.054688 36.078125 54.585938 36.089844 54.039062 C 36.242188 53.988281 36.394531 53.933594 36.554688 53.882812 C 36.699219 53.574219 36.699219 53.574219 36.789062 53.191406 C 36.847656 52.976562 36.847656 52.976562 36.910156 52.761719 C 36.949219 52.609375 36.988281 52.460938 37.027344 52.308594 C 37.105469 52.015625 37.183594 51.722656 37.265625 51.429688 C 37.300781 51.292969 37.339844 51.15625 37.375 51.011719 C 37.5 50.574219 37.640625 50.140625 37.789062 49.707031 Z M 37.789062 49.707031 " fill-opacity="1" fill-rule="nonzero"/><g clip-path="url(#dc4620b915)"><path fill="#d87943" d="M 40.109375 68.265625 C 40.570312 68.34375 40.570312 68.34375 41.039062 68.421875 C 40.988281 68.523438 40.9375 68.625 40.882812 68.730469 C 41.273438 69.164062 41.535156 69.421875 42.121094 69.503906 C 42.121094 69.605469 42.121094 69.707031 42.121094 69.8125 C 43.039062 69.914062 43.957031 70.019531 44.90625 70.121094 C 44.90625 70.226562 44.90625 70.328125 44.90625 70.433594 C 43.398438 70.5625 42.296875 70.371094 41.039062 69.503906 C 40.664062 69.160156 40.40625 68.839844 40.109375 68.421875 C 40.109375 68.371094 40.109375 68.320312 40.109375 68.265625 Z M 40.109375 68.265625 " fill-opacity="1" fill-rule="nonzero"/></g><path fill="#d87943" d="M 54.339844 52.492188 C 54.441406 52.492188 54.542969 52.492188 54.648438 52.492188 C 54.453125 54.355469 53.824219 56.125 53.257812 57.902344 C 53.15625 57.902344 53.054688 57.902344 52.949219 57.902344 C 52.949219 57.597656 52.949219 57.292969 52.949219 56.976562 C 53.050781 56.976562 53.152344 56.976562 53.257812 56.976562 C 53.261719 56.875 53.269531 56.773438 53.273438 56.671875 C 53.339844 55.820312 53.488281 55.265625 53.875 54.5 C 54.050781 53.835938 54.199219 53.164062 54.339844 52.492188 Z M 54.339844 52.492188 " fill-opacity="1" fill-rule="nonzero"/><g clip-path="url(#317a457e1a)"><path fill="#d87943" d="M 28.355469 2.996094 C 28.203125 3.308594 28.203125 3.308594 27.851562 3.445312 C 27.707031 3.492188 27.558594 3.539062 27.410156 3.585938 C 26.292969 3.980469 25.480469 4.410156 24.929688 5.484375 C 24.707031 5.988281 24.515625 6.5 24.335938 7.019531 C 24.105469 6.351562 24.292969 5.988281 24.589844 5.375 C 25.355469 4.027344 26.691406 2.777344 28.355469 2.996094 Z M 28.355469 2.996094 " fill-opacity="1" fill-rule="nonzero"/></g><path fill="#d87943" d="M 24.179688 7.636719 C 24.476562 8.082031 24.613281 8.433594 24.78125 8.933594 C 25.007812 9.589844 25.257812 10.054688 25.726562 10.578125 C 25.726562 10.679688 25.726562 10.78125 25.726562 10.886719 C 25.929688 10.9375 26.136719 10.988281 26.34375 11.039062 C 26.34375 11.144531 26.34375 11.246094 26.34375 11.351562 C 26.464844 11.398438 26.585938 11.445312 26.710938 11.496094 C 27.117188 11.660156 27.117188 11.660156 27.429688 11.8125 C 27.429688 11.914062 27.429688 12.019531 27.429688 12.125 C 26.238281 11.75 25.214844 10.878906 24.625 9.792969 C 24.257812 9.039062 24.109375 8.476562 24.179688 7.636719 Z M 24.179688 7.636719 " fill-opacity="1" fill-rule="nonzero"/><path fill="#d87943" d="M 27.582031 12.125 C 28.269531 12.203125 28.703125 12.375 29.285156 12.742188 C 29.445312 12.78125 29.445312 12.78125 29.613281 12.820312 C 29.902344 12.898438 29.902344 12.898438 30.105469 13.097656 C 30.535156 13.53125 31.054688 13.839844 31.5625 14.175781 C 31.914062 14.441406 31.914062 14.441406 32.222656 14.90625 C 31.5625 14.675781 31.003906 14.328125 30.425781 13.941406 C 29.503906 13.335938 28.5625 12.789062 27.582031 12.277344 C 27.582031 12.226562 27.582031 12.175781 27.582031 12.125 Z M 27.582031 12.125 " fill-opacity="1" fill-rule="nonzero"/><path fill="#d87943" d="M 17.21875 35.167969 C 17.8125 35.71875 18.230469 36.273438 18.621094 36.984375 C 18.675781 37.082031 18.726562 37.175781 18.78125 37.273438 C 19.847656 39.207031 19.847656 39.207031 19.847656 39.808594 C 19.746094 39.808594 19.644531 39.808594 19.539062 39.808594 C 19.464844 39.636719 19.386719 39.464844 19.308594 39.289062 C 18.761719 38.089844 18.230469 36.96875 17.414062 35.921875 C 17.21875 35.632812 17.21875 35.632812 17.21875 35.167969 Z M 17.21875 35.167969 " fill-opacity="1" fill-rule="nonzero"/><path fill="#d87943" d="M 39.957031 8.71875 C 41.351562 9.902344 42.695312 11.125 43.976562 12.433594 C 43.824219 12.484375 43.671875 12.535156 43.511719 12.585938 C 43.460938 12.433594 43.410156 12.28125 43.359375 12.125 C 43.257812 12.125 43.15625 12.125 43.050781 12.125 C 42.835938 11.894531 42.835938 11.894531 42.585938 11.582031 C 42.035156 10.933594 41.421875 10.421875 40.75 9.90625 C 40.421875 9.648438 40.421875 9.648438 40.109375 9.339844 C 39.957031 9.390625 39.804688 9.441406 39.648438 9.492188 C 39.75 9.238281 39.851562 8.984375 39.957031 8.71875 Z M 39.957031 8.71875 " fill-opacity="1" fill-rule="nonzero"/><path fill="#d87943" d="M 54.957031 35.324219 C 55.007812 35.324219 55.0625 35.324219 55.113281 35.324219 C 55.53125 37.371094 55.453125 39.429688 55.421875 41.507812 C 55.371094 41.507812 55.320312 41.507812 55.269531 41.507812 C 55.257812 41.230469 55.257812 41.230469 55.246094 40.941406 C 55.183594 39.570312 55.09375 38.226562 54.867188 36.867188 C 54.800781 36.394531 54.78125 35.953125 54.804688 35.476562 C 54.855469 35.425781 54.90625 35.375 54.957031 35.324219 Z M 54.957031 35.324219 " fill-opacity="1" fill-rule="nonzero"/><path fill="#d87943" d="M 32.222656 14.90625 C 32.480469 15.011719 32.738281 15.113281 32.996094 15.214844 C 33.128906 15.257812 33.265625 15.300781 33.402344 15.34375 C 33.871094 15.574219 33.96875 15.859375 34.234375 16.300781 C 34.359375 16.351562 34.488281 16.402344 34.621094 16.453125 C 35.125 16.65625 35.210938 16.914062 35.46875 17.382812 C 35.789062 17.65625 35.789062 17.65625 36.089844 17.847656 C 36.039062 18 35.988281 18.152344 35.933594 18.308594 C 35.875 18.246094 35.816406 18.1875 35.757812 18.121094 C 34.949219 17.285156 34.058594 16.5625 33.152344 15.835938 C 32.835938 15.582031 32.527344 15.324219 32.222656 15.0625 C 32.222656 15.011719 32.222656 14.960938 32.222656 14.90625 Z M 32.222656 14.90625 " fill-opacity="1" fill-rule="nonzero"/><path fill="#d87943" d="M 48.773438 66.566406 C 48.875 66.617188 48.976562 66.667969 49.082031 66.71875 C 48.285156 67.980469 47.46875 69.226562 46.144531 69.96875 C 46.039062 69.96875 45.9375 69.96875 45.832031 69.96875 C 45.832031 69.867188 45.832031 69.765625 45.832031 69.660156 C 45.988281 69.660156 46.140625 69.660156 46.296875 69.660156 C 46.296875 69.503906 46.296875 69.351562 46.296875 69.195312 C 46.601562 69.042969 46.910156 68.886719 47.226562 68.730469 C 47.226562 68.628906 47.226562 68.527344 47.226562 68.421875 C 47.484375 68.164062 47.742188 67.90625 48 67.648438 C 48.269531 67.296875 48.519531 66.933594 48.773438 66.566406 Z M 48.773438 66.566406 " fill-opacity="1" fill-rule="nonzero"/><path fill="#d87943" d="M 43.050781 28.363281 C 43.152344 28.363281 43.253906 28.363281 43.359375 28.363281 C 43.359375 28.464844 43.359375 28.566406 43.359375 28.671875 C 43.460938 28.722656 43.5625 28.773438 43.667969 28.828125 C 43.894531 29.285156 44.054688 29.769531 44.230469 30.25 C 44.277344 30.378906 44.328125 30.511719 44.378906 30.648438 C 44.640625 31.351562 44.816406 31.929688 44.75 32.695312 C 44.476562 32.285156 44.320312 31.949219 44.144531 31.496094 C 44.089844 31.351562 44.039062 31.210938 43.980469 31.066406 C 43.925781 30.917969 43.871094 30.769531 43.8125 30.617188 C 43.726562 30.394531 43.726562 30.394531 43.640625 30.167969 C 43.1875 28.96875 43.1875 28.96875 43.050781 28.363281 Z M 43.050781 28.363281 " fill-opacity="1" fill-rule="nonzero"/><path fill="#d87943" d="M 19.695312 50.945312 C 19.796875 50.945312 19.898438 50.945312 20.003906 50.945312 C 19.933594 51.878906 19.507812 52.59375 19.066406 53.398438 C 18.992188 53.535156 18.921875 53.671875 18.84375 53.8125 C 18.664062 54.144531 18.484375 54.476562 18.304688 54.8125 C 18.199219 54.605469 18.097656 54.402344 17.992188 54.191406 C 18.082031 54.117188 18.171875 54.046875 18.265625 53.96875 C 18.886719 53.261719 19.265625 52.347656 19.386719 51.410156 C 19.488281 51.410156 19.589844 51.410156 19.695312 51.410156 C 19.695312 51.253906 19.695312 51.101562 19.695312 50.945312 Z M 19.695312 50.945312 " fill-opacity="1" fill-rule="nonzero"/><path fill="#d87943" d="M 46.296875 46.921875 C 46.398438 46.972656 46.5 47.023438 46.605469 47.078125 C 46.605469 47.179688 46.605469 47.28125 46.605469 47.386719 C 46.707031 47.4375 46.8125 47.488281 46.914062 47.542969 C 46.820312 47.746094 46.722656 47.949219 46.625 48.152344 C 46.570312 48.261719 46.519531 48.375 46.460938 48.492188 C 46.296875 48.777344 46.296875 48.777344 45.988281 48.933594 C 45.886719 49.324219 45.886719 49.324219 45.832031 49.707031 C 45.78125 49.707031 45.730469 49.707031 45.679688 49.707031 C 45.691406 49.386719 45.707031 49.070312 45.726562 48.75 C 45.734375 48.574219 45.746094 48.394531 45.753906 48.210938 C 45.835938 47.671875 45.988281 47.363281 46.296875 46.921875 Z M 46.296875 46.921875 " fill-opacity="1" fill-rule="nonzero"/><path fill="#d87943" d="M 47.070312 16.453125 C 47.703125 17.019531 48.125 17.699219 48.578125 18.40625 C 48.65625 18.527344 48.734375 18.648438 48.816406 18.769531 C 49.390625 19.664062 49.390625 19.664062 49.390625 20.011719 C 49.289062 20.011719 49.1875 20.011719 49.082031 20.011719 C 48.746094 19.554688 48.488281 19.160156 48.308594 18.621094 C 48.207031 18.566406 48.105469 18.515625 48 18.464844 C 47.839844 18.15625 47.6875 17.847656 47.535156 17.535156 C 47.449219 17.425781 47.363281 17.3125 47.273438 17.199219 C 47.070312 16.917969 47.070312 16.917969 47.070312 16.453125 Z M 47.070312 16.453125 " fill-opacity="1" fill-rule="nonzero"/><path fill="#d87943" d="M 20.003906 16.609375 C 20.003906 16.660156 20.003906 16.710938 20.003906 16.761719 C 19.1875 16.761719 18.371094 16.761719 17.53125 16.761719 C 17.476562 16.917969 17.425781 17.070312 17.375 17.226562 C 17.089844 17.339844 17.089844 17.339844 16.746094 17.410156 C 16.632812 17.433594 16.519531 17.460938 16.402344 17.484375 C 16.269531 17.511719 16.269531 17.511719 16.136719 17.535156 C 16.1875 17.382812 16.238281 17.230469 16.292969 17.074219 C 17.515625 16.460938 18.664062 16.285156 20.003906 16.609375 Z M 20.003906 16.609375 " fill-opacity="1" fill-rule="nonzero"/><path fill="#d87943" d="M 33.304688 60.070312 C 33.355469 60.222656 33.40625 60.375 33.460938 60.535156 C 33.199219 60.929688 33.199219 60.929688 32.820312 61.375 C 32.640625 61.59375 32.640625 61.59375 32.453125 61.820312 C 32.085938 62.214844 31.742188 62.554688 31.292969 62.851562 C 31.140625 62.800781 30.988281 62.75 30.832031 62.699219 C 31.566406 62.082031 31.566406 62.082031 31.914062 62.082031 C 31.914062 61.925781 31.914062 61.773438 31.914062 61.617188 C 32.167969 61.40625 32.425781 61.199219 32.6875 60.996094 C 32.738281 60.84375 32.789062 60.691406 32.839844 60.535156 C 33.082031 60.273438 33.082031 60.273438 33.304688 60.070312 Z M 33.304688 60.070312 " fill-opacity="1" fill-rule="nonzero"/><path fill="#d87943" d="M 37.328125 6.710938 C 38.140625 7.238281 38.914062 7.773438 39.648438 8.410156 C 39.238281 8.636719 39.042969 8.71875 38.5625 8.71875 C 38.667969 8.566406 38.769531 8.414062 38.875 8.257812 C 38.777344 8.214844 38.683594 8.171875 38.582031 8.132812 C 38.253906 7.949219 38.253906 7.949219 37.945312 7.484375 C 37.625 7.371094 37.625 7.371094 37.328125 7.328125 C 37.328125 7.125 37.328125 6.921875 37.328125 6.710938 Z M 37.328125 6.710938 " fill-opacity="1" fill-rule="nonzero"/><path fill="#d87943" d="M 24.488281 61.460938 C 24.589844 61.460938 24.695312 61.460938 24.796875 61.460938 C 24.796875 61.5625 24.796875 61.664062 24.796875 61.769531 C 24.902344 61.769531 25.003906 61.769531 25.109375 61.769531 C 25.183594 61.882812 25.261719 61.992188 25.339844 62.109375 C 25.882812 62.71875 26.535156 62.988281 27.273438 63.316406 C 27.273438 63.367188 27.273438 63.417969 27.273438 63.472656 C 26.277344 63.429688 25.679688 63.066406 24.953125 62.390625 C 24.488281 61.835938 24.488281 61.835938 24.488281 61.460938 Z M 24.488281 61.460938 " fill-opacity="1" fill-rule="nonzero"/><path fill="#d87943" d="M 17.839844 54.8125 C 17.941406 54.863281 18.042969 54.914062 18.148438 54.964844 C 17.960938 55.210938 17.769531 55.457031 17.578125 55.699219 C 17.417969 55.90625 17.417969 55.90625 17.257812 56.113281 C 16.914062 56.507812 16.554688 56.816406 16.136719 57.132812 C 16.214844 56.449219 16.613281 56.070312 17.066406 55.585938 C 17.167969 55.585938 17.269531 55.585938 17.375 55.585938 C 17.421875 55.484375 17.46875 55.386719 17.519531 55.285156 C 17.683594 54.964844 17.683594 54.964844 17.839844 54.8125 Z M 17.839844 54.8125 " fill-opacity="1" fill-rule="nonzero"/><path fill="#d87943" d="M 8.714844 39.808594 C 8.976562 39.824219 8.976562 39.824219 9.332031 39.964844 C 9.601562 40.28125 9.828125 40.585938 10.058594 40.929688 C 10.121094 41.019531 10.183594 41.105469 10.246094 41.199219 C 10.59375 41.707031 10.8125 42.132812 10.878906 42.746094 C 10.445312 42.210938 10.027344 41.664062 9.621094 41.105469 C 9.515625 40.957031 9.410156 40.8125 9.300781 40.664062 C 9.101562 40.382812 8.90625 40.097656 8.714844 39.808594 Z M 8.714844 39.808594 " fill-opacity="1" fill-rule="nonzero"/><path fill="#d87943" d="M 51.402344 61.925781 C 51.453125 62.027344 51.503906 62.128906 51.554688 62.234375 C 51.460938 62.496094 51.460938 62.496094 51.300781 62.804688 C 51.242188 62.917969 51.1875 63.027344 51.128906 63.140625 C 51.070312 63.257812 51.007812 63.371094 50.945312 63.492188 C 50.886719 63.609375 50.828125 63.726562 50.765625 63.84375 C 50.617188 64.132812 50.46875 64.421875 50.320312 64.710938 C 50.214844 64.710938 50.113281 64.710938 50.007812 64.710938 C 50.164062 64.199219 50.316406 63.6875 50.472656 63.164062 C 50.574219 63.164062 50.675781 63.164062 50.78125 63.164062 C 50.847656 62.984375 50.847656 62.984375 50.917969 62.804688 C 51.09375 62.390625 51.09375 62.390625 51.402344 61.925781 Z M 51.402344 61.925781 " fill-opacity="1" fill-rule="nonzero"/><path fill="#d87943" d="M 25.570312 19.546875 C 26.496094 20.117188 27.390625 20.679688 28.203125 21.402344 C 28.046875 21.480469 28.046875 21.480469 27.890625 21.558594 C 27.507812 21.386719 27.167969 21.160156 26.808594 20.9375 C 26.808594 20.835938 26.808594 20.734375 26.808594 20.628906 C 26.65625 20.628906 26.503906 20.628906 26.34375 20.628906 C 25.929688 20.261719 25.929688 20.261719 25.570312 19.855469 C 25.570312 19.753906 25.570312 19.652344 25.570312 19.546875 Z M 25.570312 19.546875 " fill-opacity="1" fill-rule="nonzero"/><path fill="#d87943" d="M 52.484375 58.832031 C 52.585938 58.832031 52.6875 58.832031 52.792969 58.832031 C 52.691406 59.515625 52.441406 60.109375 52.164062 60.738281 C 52.121094 60.835938 52.078125 60.9375 52.03125 61.039062 C 51.925781 61.28125 51.820312 61.527344 51.710938 61.769531 C 51.515625 61.183594 51.632812 60.964844 51.835938 60.386719 C 51.890625 60.226562 51.945312 60.066406 52.003906 59.902344 C 52.144531 59.527344 52.296875 59.183594 52.484375 58.832031 Z M 52.484375 58.832031 " fill-opacity="1" fill-rule="nonzero"/><path fill="#d87943" d="M 24.953125 56.046875 C 25.054688 56.097656 25.15625 56.148438 25.261719 56.203125 C 25.261719 56.355469 25.261719 56.507812 25.261719 56.667969 C 25.171875 56.753906 25.078125 56.839844 24.984375 56.929688 C 24.519531 57.417969 24.390625 57.886719 24.179688 58.523438 C 24.042969 58.140625 24.011719 57.949219 24.136719 57.554688 C 24.191406 57.4375 24.246094 57.320312 24.304688 57.199219 C 24.359375 57.082031 24.417969 56.960938 24.472656 56.839844 C 24.644531 56.511719 24.644531 56.511719 24.953125 56.046875 Z M 24.953125 56.046875 " fill-opacity="1" fill-rule="nonzero"/><path fill="#d87943" d="M 5 37.179688 C 5.707031 37.261719 6.128906 37.546875 6.703125 37.953125 C 6.851562 38.035156 6.996094 38.117188 7.148438 38.203125 C 7.257812 38.273438 7.363281 38.34375 7.476562 38.417969 C 7.476562 38.519531 7.476562 38.621094 7.476562 38.726562 C 6.546875 38.40625 5.675781 37.898438 5 37.179688 Z M 5 37.179688 " fill-opacity="1" fill-rule="nonzero"/><path fill="#d87943" d="M 27.429688 35.632812 C 27.65625 35.785156 27.65625 35.785156 27.890625 35.941406 C 27.890625 36.09375 27.890625 36.246094 27.890625 36.40625 C 28.046875 36.457031 28.199219 36.507812 28.355469 36.558594 C 28.355469 37.019531 28.355469 37.480469 28.355469 37.953125 C 28.097656 37.566406 27.90625 37.214844 27.71875 36.792969 C 27.664062 36.671875 27.609375 36.554688 27.550781 36.429688 C 27.429688 36.097656 27.429688 36.097656 27.429688 35.632812 Z M 27.429688 35.632812 " fill-opacity="1" fill-rule="nonzero"/><path fill="#d87943" d="M 22.789062 28.980469 C 23.171875 29.058594 23.171875 29.058594 23.5625 29.136719 C 23.511719 29.289062 23.460938 29.441406 23.40625 29.601562 C 23.507812 29.601562 23.609375 29.601562 23.714844 29.601562 C 23.761719 29.714844 23.804688 29.832031 23.851562 29.949219 C 24 30.308594 24.160156 30.648438 24.335938 30.992188 C 23.699219 30.488281 23.140625 30.039062 22.789062 29.292969 C 22.789062 29.1875 22.789062 29.085938 22.789062 28.980469 Z M 22.789062 28.980469 " fill-opacity="1" fill-rule="nonzero"/><path fill="#d87943" d="M 32.222656 25.734375 C 32.730469 26.214844 33.125 26.664062 33.460938 27.28125 C 33.203125 27.28125 32.949219 27.28125 32.6875 27.28125 C 32.535156 26.769531 32.378906 26.257812 32.222656 25.734375 Z M 32.222656 25.734375 " fill-opacity="1" fill-rule="nonzero"/><g clip-path="url(#73cb0ca299)"><path fill="#d87943" d="M 28.355469 2.996094 C 28.148438 3.414062 27.96875 3.421875 27.535156 3.566406 C 27.414062 3.609375 27.292969 3.652344 27.167969 3.695312 C 26.78125 3.777344 26.5625 3.742188 26.191406 3.617188 C 26.929688 3.195312 27.480469 2.910156 28.355469 2.996094 Z M 28.355469 2.996094 " fill-opacity="1" fill-rule="nonzero"/></g><path fill="#d87943" d="M 43.050781 57.59375 C 43.101562 57.59375 43.152344 57.59375 43.203125 57.59375 C 43.257812 58.34375 43.140625 58.8125 42.738281 59.449219 C 42.585938 59.5 42.433594 59.554688 42.277344 59.605469 C 42.496094 58.914062 42.757812 58.257812 43.050781 57.59375 Z M 43.050781 57.59375 " fill-opacity="1" fill-rule="nonzero"/><path fill="#d87943" d="M 52.636719 57.441406 C 52.742188 57.441406 52.84375 57.441406 52.949219 57.441406 C 53.121094 58.308594 53.121094 58.308594 52.949219 58.832031 C 52.847656 58.832031 52.742188 58.832031 52.636719 58.832031 C 52.464844 58.398438 52.464844 58.398438 52.328125 57.902344 C 52.429688 57.75 52.535156 57.597656 52.636719 57.441406 Z M 52.636719 57.441406 " fill-opacity="1" fill-rule="nonzero"/><path fill="#d87943" d="M 27.273438 52.179688 C 27.378906 52.433594 27.378906 52.433594 27.429688 52.800781 C 27.238281 53.234375 27.238281 53.234375 26.972656 53.691406 C 26.886719 53.84375 26.796875 53.996094 26.707031 54.152344 C 26.640625 54.265625 26.570312 54.382812 26.5 54.5 C 26.394531 54.246094 26.394531 54.246094 26.34375 53.882812 C 26.535156 53.449219 26.535156 53.449219 26.800781 52.992188 C 26.886719 52.839844 26.976562 52.6875 27.066406 52.53125 C 27.132812 52.417969 27.203125 52.300781 27.273438 52.179688 Z M 27.273438 52.179688 " fill-opacity="1" fill-rule="nonzero"/><path fill="#d87943" d="M 36.089844 18.308594 C 36.613281 18.535156 36.933594 18.832031 37.328125 19.238281 C 37.480469 19.339844 37.632812 19.441406 37.789062 19.546875 C 37.738281 19.75 37.6875 19.957031 37.636719 20.164062 C 37.378906 19.886719 37.121094 19.605469 36.863281 19.324219 C 36.753906 19.207031 36.753906 19.207031 36.640625 19.082031 C 36.089844 18.480469 36.089844 18.480469 36.089844 18.308594 Z M 36.089844 18.308594 " fill-opacity="1" fill-rule="nonzero"/><path fill="#d87943" d="M 39.957031 8.71875 C 40.027344 8.785156 40.101562 8.847656 40.175781 8.914062 C 40.273438 8.996094 40.367188 9.078125 40.46875 9.164062 C 40.5625 9.246094 40.660156 9.332031 40.757812 9.414062 C 41.058594 9.675781 41.058594 9.675781 41.503906 9.957031 C 41.503906 10.058594 41.503906 10.160156 41.503906 10.265625 C 41.101562 10.089844 40.824219 9.90625 40.488281 9.621094 C 40.363281 9.527344 40.238281 9.433594 40.109375 9.339844 C 39.957031 9.390625 39.804688 9.441406 39.648438 9.492188 C 39.75 9.238281 39.851562 8.984375 39.957031 8.71875 Z M 39.957031 8.71875 " fill-opacity="1" fill-rule="nonzero"/><path fill="#d87943" d="M 24.027344 59.914062 C 24.230469 59.964844 24.433594 60.015625 24.644531 60.070312 C 24.695312 60.375 24.746094 60.683594 24.796875 60.996094 C 24.59375 61.046875 24.390625 61.097656 24.179688 61.152344 C 24.128906 60.742188 24.078125 60.335938 24.027344 59.914062 Z M 24.027344 59.914062 " fill-opacity="1" fill-rule="nonzero"/><path fill="#d87943" d="M 8.558594 55.121094 C 8.660156 55.121094 8.761719 55.121094 8.867188 55.121094 C 8.917969 55.375 8.96875 55.628906 9.023438 55.894531 C 9.125 55.894531 9.226562 55.894531 9.332031 55.894531 C 9.496094 56.175781 9.496094 56.175781 9.640625 56.511719 C 9.589844 56.664062 9.539062 56.820312 9.488281 56.976562 C 9.332031 56.753906 9.175781 56.53125 9.023438 56.308594 C 8.894531 56.125 8.894531 56.125 8.761719 55.933594 C 8.558594 55.585938 8.558594 55.585938 8.558594 55.121094 Z M 8.558594 55.121094 " fill-opacity="1" fill-rule="nonzero"/><path fill="#d87943" d="M 37.789062 20.164062 C 37.933594 20.21875 38.078125 20.269531 38.226562 20.320312 C 38.707031 20.5 38.707031 20.5 39.183594 20.476562 C 39.132812 20.730469 39.082031 20.984375 39.027344 21.25 C 38.152344 20.867188 38.152344 20.867188 37.886719 20.445312 C 37.855469 20.355469 37.824219 20.261719 37.789062 20.164062 Z M 37.789062 20.164062 " fill-opacity="1" fill-rule="nonzero"/><path fill="#d87943" d="M 23.5625 18.308594 C 23.8125 18.421875 24.066406 18.539062 24.316406 18.65625 C 24.457031 18.722656 24.59375 18.785156 24.738281 18.855469 C 25.140625 19.101562 25.257812 19.269531 25.417969 19.703125 C 25.136719 19.558594 24.855469 19.414062 24.578125 19.265625 C 24.421875 19.1875 24.265625 19.105469 24.101562 19.023438 C 23.714844 18.773438 23.714844 18.773438 23.5625 18.308594 Z M 23.5625 18.308594 " fill-opacity="1" fill-rule="nonzero"/><path fill="#d87943" d="M 27.582031 12.125 C 28.398438 12.203125 28.910156 12.472656 29.59375 12.898438 C 29.59375 13 29.59375 13.101562 29.59375 13.207031 C 28.898438 12.945312 28.242188 12.617188 27.582031 12.277344 C 27.582031 12.226562 27.582031 12.175781 27.582031 12.125 Z M 27.582031 12.125 " fill-opacity="1" fill-rule="nonzero"/><path fill="#d87943" d="M 37.480469 48.933594 C 37.632812 48.984375 37.789062 49.035156 37.945312 49.089844 C 37.839844 49.675781 37.679688 50.226562 37.480469 50.789062 C 37.429688 50.789062 37.378906 50.789062 37.328125 50.789062 C 37.328125 50.433594 37.328125 50.074219 37.328125 49.707031 C 37.480469 49.65625 37.632812 49.605469 37.789062 49.550781 C 37.6875 49.5 37.585938 49.449219 37.480469 49.398438 C 37.480469 49.246094 37.480469 49.089844 37.480469 48.933594 Z M 37.480469 48.933594 " fill-opacity="1" fill-rule="nonzero"/><path fill="#d87943" d="M 3.453125 35.785156 C 4.152344 36.144531 4.527344 36.570312 5 37.179688 C 4.292969 36.949219 3.851562 36.582031 3.300781 36.097656 C 3.351562 35.996094 3.402344 35.890625 3.453125 35.785156 Z M 3.453125 35.785156 " fill-opacity="1" fill-rule="nonzero"/><path fill="#d87943" d="M 50.164062 21.710938 C 50.265625 21.710938 50.367188 21.710938 50.472656 21.710938 C 50.601562 21.9375 50.730469 22.164062 50.859375 22.390625 C 50.96875 22.578125 50.96875 22.578125 51.078125 22.769531 C 51.246094 23.105469 51.246094 23.105469 51.246094 23.414062 C 51.144531 23.414062 51.042969 23.414062 50.9375 23.414062 C 50.808594 23.1875 50.679688 22.964844 50.550781 22.738281 C 50.441406 22.546875 50.441406 22.546875 50.332031 22.355469 C 50.164062 22.023438 50.164062 22.023438 50.164062 21.710938 Z M 50.164062 21.710938 " fill-opacity="1" fill-rule="nonzero"/><path fill="#d87943" d="M 24.335938 31.148438 C 24.539062 31.148438 24.742188 31.148438 24.953125 31.148438 C 25.570312 32.171875 25.570312 32.171875 25.570312 32.695312 C 25.070312 32.226562 24.703125 31.726562 24.335938 31.148438 Z M 24.335938 31.148438 " fill-opacity="1" fill-rule="nonzero"/><path fill="#d87943" d="M 42.121094 26.507812 C 42.324219 26.558594 42.53125 26.609375 42.738281 26.660156 C 43.03125 27.285156 43.066406 27.527344 42.894531 28.207031 C 42.640625 27.648438 42.382812 27.085938 42.121094 26.507812 Z M 42.121094 26.507812 " fill-opacity="1" fill-rule="nonzero"/><path fill="#d87943" d="M 16.445312 25.113281 C 17.21875 25.1875 17.6875 25.417969 18.304688 25.886719 C 18.355469 25.992188 18.40625 26.09375 18.457031 26.199219 C 17.761719 25.9375 17.109375 25.609375 16.445312 25.269531 C 16.445312 25.21875 16.445312 25.167969 16.445312 25.113281 Z M 16.445312 25.113281 " fill-opacity="1" fill-rule="nonzero"/><path fill="#d87943" d="M 49.546875 65.019531 C 49.699219 65.070312 49.851562 65.121094 50.007812 65.171875 C 49.625 65.863281 49.625 65.863281 49.234375 66.566406 C 49.074219 66.082031 49.089844 65.949219 49.234375 65.484375 C 49.339844 65.484375 49.441406 65.484375 49.546875 65.484375 C 49.546875 65.328125 49.546875 65.175781 49.546875 65.019531 Z M 49.546875 65.019531 " fill-opacity="1" fill-rule="nonzero"/><path fill="#d87943" d="M 17.21875 35.167969 C 17.765625 35.660156 18.085938 35.96875 18.148438 36.714844 C 17.785156 36.367188 17.5 36.054688 17.21875 35.632812 C 17.21875 35.480469 17.21875 35.324219 17.21875 35.167969 Z M 17.21875 35.167969 " fill-opacity="1" fill-rule="nonzero"/><path fill="#d87943" d="M 5.621094 28.828125 C 6.285156 28.828125 6.949219 28.828125 7.632812 28.828125 C 7.632812 28.878906 7.632812 28.929688 7.632812 28.980469 C 7.121094 29.082031 6.609375 29.1875 6.085938 29.292969 C 6.085938 29.1875 6.085938 29.085938 6.085938 28.980469 C 5.929688 28.929688 5.777344 28.878906 5.621094 28.828125 Z M 5.621094 28.828125 " fill-opacity="1" fill-rule="nonzero"/><path fill="#d87943" d="M 28.820312 22.175781 C 29.4375 22.5 29.800781 22.851562 30.210938 23.414062 C 29.605469 23.210938 29.234375 22.976562 28.820312 22.484375 C 28.820312 22.382812 28.820312 22.28125 28.820312 22.175781 Z M 28.820312 22.175781 " fill-opacity="1" fill-rule="nonzero"/><path fill="#d87943" d="M 9.796875 50.015625 C 9.847656 50.117188 9.898438 50.21875 9.949219 50.324219 C 9.804688 50.652344 9.804688 50.652344 9.640625 50.945312 C 9.539062 50.945312 9.4375 50.945312 9.332031 50.945312 C 9.28125 51.097656 9.230469 51.25 9.175781 51.410156 C 9.074219 51.355469 8.972656 51.304688 8.867188 51.253906 C 9.449219 50.363281 9.449219 50.363281 9.796875 50.015625 Z M 9.796875 50.015625 " fill-opacity="1" fill-rule="nonzero"/><path fill="#d87943" d="M 49.390625 20.011719 C 49.816406 20.507812 50.105469 20.941406 50.320312 21.558594 C 49.855469 21.402344 49.855469 21.402344 49.59375 21.046875 C 49.390625 20.628906 49.390625 20.628906 49.390625 20.011719 Z M 49.390625 20.011719 " fill-opacity="1" fill-rule="nonzero"/><path fill="#d87943" d="M 11.652344 45.066406 C 11.703125 45.066406 11.753906 45.066406 11.808594 45.066406 C 11.859375 45.679688 11.910156 46.292969 11.960938 46.921875 C 11.808594 47 11.808594 47 11.652344 47.078125 C 11.652344 46.875 11.652344 46.667969 11.652344 46.457031 C 11.550781 46.40625 11.449219 46.355469 11.34375 46.304688 C 11.445312 46.304688 11.546875 46.304688 11.652344 46.304688 C 11.652344 45.894531 11.652344 45.488281 11.652344 45.066406 Z M 11.652344 45.066406 " fill-opacity="1" fill-rule="nonzero"/><path fill="#d87943" d="M 40.421875 67.183594 C 40.730469 67.765625 40.730469 67.765625 40.730469 68.113281 C 40.472656 68.164062 40.21875 68.214844 39.957031 68.265625 C 40.109375 67.910156 40.261719 67.550781 40.421875 67.183594 Z M 40.421875 67.183594 " fill-opacity="1" fill-rule="nonzero"/><path fill="#d87943" d="M 25.726562 62.699219 C 26.5 63.007812 26.5 63.007812 27.273438 63.316406 C 27.273438 63.367188 27.273438 63.417969 27.273438 63.472656 C 26.25 63.355469 26.25 63.355469 25.726562 63.007812 C 25.726562 62.90625 25.726562 62.804688 25.726562 62.699219 Z M 25.726562 62.699219 " fill-opacity="1" fill-rule="nonzero"/><path fill="#d87943" d="M 7.476562 38.726562 C 7.996094 38.820312 8.308594 39.011719 8.714844 39.34375 C 8.664062 39.496094 8.613281 39.652344 8.558594 39.808594 C 8.378906 39.65625 8.199219 39.507812 8.019531 39.355469 C 7.917969 39.269531 7.816406 39.183594 7.714844 39.097656 C 7.636719 39.027344 7.558594 38.953125 7.476562 38.878906 C 7.476562 38.828125 7.476562 38.777344 7.476562 38.726562 Z M 7.476562 38.726562 " fill-opacity="1" fill-rule="nonzero"/><path fill="#d87943" d="M 16.136719 33.777344 C 16.546875 34.175781 16.902344 34.535156 17.21875 35.015625 C 17.066406 35.089844 17.066406 35.089844 16.910156 35.167969 C 16.136719 34.296875 16.136719 34.296875 16.136719 33.777344 Z M 16.136719 33.777344 " fill-opacity="1" fill-rule="nonzero"/><path fill="#d87943" d="M 3.300781 30.375 C 3.453125 30.527344 3.605469 30.679688 3.765625 30.835938 C 3.714844 30.992188 3.664062 31.144531 3.609375 31.300781 C 3.40625 31.300781 3.203125 31.300781 2.992188 31.300781 C 3.09375 30.996094 3.195312 30.6875 3.300781 30.375 Z M 3.300781 30.375 " fill-opacity="1" fill-rule="nonzero"/><g transform="matrix(1, 0, 0, 1, 56, 4)"><g clip-path="url(#2ce27fa151)"><g fill="#ffffff" fill-opacity="1"><g transform="translate(0.864289, 49.343722)"><g><path d="M 10.921875 -26.46875 L 10.921875 -19.828125 L 21.65625 -19.828125 L 21.65625 -13.640625 L 10.921875 -13.640625 L 10.921875 -6.421875 L 23.0625 -6.421875 L 23.0625 0 L 2.90625 0 L 2.90625 -32.890625 L 23.0625 -32.890625 L 23.0625 -26.46875 Z M 10.921875 -26.46875 "/></g></g></g><g fill="#ffffff" fill-opacity="1"><g transform="translate(26.208751, 49.343722)"><g><path d="M 1.3125 -13.078125 C 1.3125 -15.796875 1.863281 -18.171875 2.96875 -20.203125 C 4.082031 -22.234375 5.628906 -23.789062 7.609375 -24.875 C 9.597656 -25.96875 11.875 -26.515625 14.4375 -26.515625 C 17.71875 -26.515625 20.457031 -25.65625 22.65625 -23.9375 C 24.851562 -22.226562 26.296875 -19.8125 26.984375 -16.6875 L 18.46875 -16.6875 C 17.75 -18.6875 16.359375 -19.6875 14.296875 -19.6875 C 12.828125 -19.6875 11.65625 -19.113281 10.78125 -17.96875 C 9.90625 -16.832031 9.46875 -15.203125 9.46875 -13.078125 C 9.46875 -10.953125 9.90625 -9.316406 10.78125 -8.171875 C 11.65625 -7.035156 12.828125 -6.46875 14.296875 -6.46875 C 16.359375 -6.46875 17.75 -7.46875 18.46875 -9.46875 L 26.984375 -9.46875 C 26.296875 -6.40625 24.84375 -4 22.625 -2.25 C 20.414062 -0.5 17.6875 0.375 14.4375 0.375 C 11.875 0.375 9.597656 -0.171875 7.609375 -1.265625 C 5.628906 -2.359375 4.082031 -3.921875 2.96875 -5.953125 C 1.863281 -7.984375 1.3125 -10.359375 1.3125 -13.078125 Z M 1.3125 -13.078125 "/></g></g></g><g fill="#ffffff" fill-opacity="1"><g transform="translate(54.551448, 49.343722)"><g><path d="M 18.984375 -26.421875 C 21.972656 -26.421875 24.375 -25.429688 26.1875 -23.453125 C 28 -21.472656 28.90625 -18.75 28.90625 -15.28125 L 28.90625 0 L 20.953125 0 L 20.953125 -14.203125 C 20.953125 -15.953125 20.5 -17.3125 19.59375 -18.28125 C 18.6875 -19.25 17.46875 -19.734375 15.9375 -19.734375 C 14.40625 -19.734375 13.1875 -19.25 12.28125 -18.28125 C 11.375 -17.3125 10.921875 -15.953125 10.921875 -14.203125 L 10.921875 0 L 2.90625 0 L 2.90625 -34.671875 L 10.921875 -34.671875 L 10.921875 -22.640625 C 11.734375 -23.785156 12.84375 -24.703125 14.25 -25.390625 C 15.65625 -26.078125 17.234375 -26.421875 18.984375 -26.421875 Z M 18.984375 -26.421875 "/></g></g></g><g fill="#ffffff" fill-opacity="1"><g transform="translate(86.126621, 49.343722)"><g><path d="M 14.8125 0.375 C 12.25 0.375 9.941406 -0.171875 7.890625 -1.265625 C 5.847656 -2.359375 4.238281 -3.921875 3.0625 -5.953125 C 1.894531 -7.984375 1.3125 -10.359375 1.3125 -13.078125 C 1.3125 -15.765625 1.90625 -18.128906 3.09375 -20.171875 C 4.28125 -22.222656 5.90625 -23.789062 7.96875 -24.875 C 10.03125 -25.96875 12.34375 -26.515625 14.90625 -26.515625 C 17.46875 -26.515625 19.773438 -25.96875 21.828125 -24.875 C 23.890625 -23.789062 25.515625 -22.222656 26.703125 -20.171875 C 27.890625 -18.128906 28.484375 -15.765625 28.484375 -13.078125 C 28.484375 -10.390625 27.878906 -8.019531 26.671875 -5.96875 C 25.472656 -3.925781 23.835938 -2.359375 21.765625 -1.265625 C 19.691406 -0.171875 17.375 0.375 14.8125 0.375 Z M 14.8125 -6.5625 C 16.34375 -6.5625 17.644531 -7.125 18.71875 -8.25 C 19.800781 -9.375 20.34375 -10.984375 20.34375 -13.078125 C 20.34375 -15.171875 19.816406 -16.78125 18.765625 -17.90625 C 17.722656 -19.03125 16.4375 -19.59375 14.90625 -19.59375 C 13.34375 -19.59375 12.046875 -19.035156 11.015625 -17.921875 C 9.984375 -16.816406 9.46875 -15.203125 9.46875 -13.078125 C 9.46875 -10.984375 9.972656 -9.375 10.984375 -8.25 C 12.003906 -7.125 13.28125 -6.5625 14.8125 -6.5625 Z M 14.8125 -6.5625 "/></g></g></g></g></g></svg>